<svg xmlns="http://www.w3.org/2000/svg" xmlns:xlink="http://www.w3.org/1999/xlink" width="332.656" height="88.794" viewBox="0 0 332.656 88.794">
  <defs>
    <clipPath id="clip-path">
      <rect id="長方形_37" data-name="長方形 37" width="332.656" height="88.794" transform="translate(0 0)" fill="none"/>
    </clipPath>
  </defs>
  <g id="贅沢な時間" transform="translate(-6 5)">
    <g id="グループ_5" data-name="グループ 5" transform="translate(6 -5)" clip-path="url(#clip-path)">
      <path id="パス_22" data-name="パス 22" d="M19.186,19.95a25.021,25.021,0,0,0-.269-3.579c8.946.715,9.841,1.431,9.841,2.147,0,.627-.805,1.163-2.594,1.7v1.61h6.978c2.683-3.221,3.757-3.936,4.383-3.936.805,0,1.7.715,4.294,2.862.984.806,1.7,1.611,1.7,2.237s-.268.9-1.163.9H21.6a31.721,31.721,0,0,1-.806,4.2h11.72c2.147-2.5,2.863-3.041,3.579-3.041.894,0,1.61.537,4.115,2.505,1.074.894,1.61,1.521,1.61,2.237,0,.626-.268.894-2.236,2.236a18.264,18.264,0,0,1-1.253,4.652,7.5,7.5,0,0,1-3.936,4.294,13.022,13.022,0,0,1-4.473.716c-1.252,0-1.61-.269-1.968-1.342-.895-2.6-2.058-3.4-6.352-4.652-.448-.089-.268-1.074.179-.984a82.307,82.307,0,0,0,8.23.626c1.074,0,1.521-.089,1.969-1.431.178-.8.357-1.968.626-3.758H20.08C17.127,37.574,11.044,42.226.667,45.267c-.448.09-.895-.894-.537-1.073C8.9,39.363,13.1,33.279,14.086,23.886H9.792a43.358,43.358,0,0,0-6.263.536l-.984-3.31a37.949,37.949,0,0,0,7.247.716h9.394Zm6.978-6.263h9.661c2.774-2.952,3.847-3.668,4.473-3.668.806,0,1.879.716,4.474,2.6,1.163.894,1.878,1.61,1.878,2.236s-.268.895-1.163.895H6.75a26.412,26.412,0,0,0-4.831.537L.935,12.971a26.368,26.368,0,0,0,5.994.716H19.186V8.767H11.67A42.224,42.224,0,0,0,5.5,9.3l-.984-3.31a37.083,37.083,0,0,0,7.156.716h7.516V4.741A46.967,46.967,0,0,0,18.917,0c8.946.894,9.841,1.789,9.841,2.594,0,.626-.805,1.252-2.594,2.057V6.709h5.815c2.594-2.773,3.668-3.489,4.294-3.489.805,0,1.878.716,4.294,2.5,1.073.805,1.789,1.521,1.789,2.147s-.268.895-1.163.895H26.164Zm5.815,63.429c-8.321,4.473-16.819,6.531-28.45,6.978-.447,0-.626-.984-.178-1.163A77.684,77.684,0,0,0,21.69,74.79,20.136,20.136,0,0,0,26.611,70.5c8.588,4.115,9.483,4.741,9.483,5.636s-.358,1.074-4.115.984m-8.947-6.8c0,2.058-1.521,2.863-4.562,2.863-2.416,0-3.758-.805-3.758-2.863,0-2.773.448-5.636.448-16.909,0-5.01-.09-10.019-.448-15.029a49.341,49.341,0,0,1,9.573,4.473H59.8c2.863-3.221,3.579-3.758,4.294-3.758.895,0,1.7.537,4.921,2.953,1.431,1.163,1.968,1.789,1.968,2.5,0,.805-.179,1.073-2.416,2.773v3.668c0,9.483.358,16.1.358,18.25s-1.878,3.221-4.831,3.221c-2.236,0-3.4-.716-3.4-2.326v-.179H23.032ZM60.7,44.91H23.032v5.9H60.7ZM23.032,59.134H60.7V52.872H23.032Zm0,8.767H60.7v-6.71H23.032ZM75.189,13.419A40.141,40.141,0,0,1,65.438,28.27c4.92,2.236,10.914,3.578,18.429,4.294.447,0,.447.984,0,1.073-3.31.984-4.742,2.5-5.458,5.9-.268,1.073-.715,1.61-1.52,1.61a10.588,10.588,0,0,1-3.579-1.163,47.366,47.366,0,0,1-12.435-8.141c-5.726,3.847-12.883,6.352-21.829,7.873-.447.089-.805-.985-.358-1.163,7.873-3.042,13.777-6.442,18.34-10.646a39.81,39.81,0,0,1-6.173-10.02,41.548,41.548,0,0,1-6.441,5.457c-.358.268-.984-.268-.716-.626a59.892,59.892,0,0,0,6.71-14.046A42.519,42.519,0,0,0,52.376.357c9.036,2.326,9.662,2.5,9.662,3.579,0,.715-.895,1.252-2.863,1.7-1.073,2.058-2.147,3.937-3.31,5.726H70.089c3.4-4.115,4.474-4.831,5.1-4.831.805,0,1.789.716,5.368,3.4,1.52,1.252,2.236,1.968,2.236,2.594s-.269.895-1.163.895ZM71.968,84.541a8.529,8.529,0,0,1-5.725-2.326c-4.742-3.936-9.662-6.352-18.429-9.125-.448-.179-.358-.895.089-.895,20.218.269,28.538,2.5,28.538,7.784a4.449,4.449,0,0,1-4.473,4.562M54.523,13.419c-.9,1.163-1.7,2.236-2.684,3.31a35.175,35.175,0,0,0,8.052,8.231,39.994,39.994,0,0,0,6.62-11.541Z" fill="#e8c26b"/>
      <path id="パス_23" data-name="パス 23" d="M98.551,72.424a12.417,12.417,0,0,0-1.014,3.66c0,2.929,2.2,5.351,2.2,8.336a3.742,3.742,0,0,1-3.661,4c-1.8,0-2.7-.958-2.7-2.929,0-1.464.45-3.661.45-5.519,0-3.661-.45-4.224-4.393-5.689-.281-.112-.169-.957.113-.9a15.235,15.235,0,0,0,2.309.338c1.239,0,2.084-.282,3.323-2.14a214.475,214.475,0,0,0,10.982-18.586c.113-.225.845,0,.732.282-2.534,6.758-5.575,12.9-8.335,19.149m-1.8-11.546c-1.352,0-1.859-.845-2.929-3.323A11.678,11.678,0,0,0,89.934,52.6c-.225-.169-.056-.451.225-.451,6.027.507,9.349,2.478,9.349,5.689a2.743,2.743,0,0,1-2.759,3.041M101.2,47.7c-1.633,0-2.027-.788-3.21-3.435a12.034,12.034,0,0,0-4-5.069c-.225-.169-.056-.45.226-.45,6.026.45,9.518,2.59,9.518,5.857,0,2.084-1.3,3.1-2.535,3.1m21.909,12.729a30.506,30.506,0,0,0,5.857,12.39c3.267,4,7.772,7.1,13.855,9.687a.3.3,0,0,1-.057.563,5.062,5.062,0,0,0-4,3.887c-.169.675-.451.957-.9.957a6.024,6.024,0,0,1-2.478-1.464,35.247,35.247,0,0,1-8.9-10.251c-2.309-4.167-3.773-9.067-4.731-15.769h-7.1c-.226,2.928-.451,5.294-.789,7.265a32.075,32.075,0,0,1-12.9,21.064c-.225.169-.62-.282-.451-.507a37.944,37.944,0,0,0,7.773-16.615A92.322,92.322,0,0,0,109.7,53.219c0-6.027-.112-9.856-.394-14.362a40.955,40.955,0,0,1,6.308,3.1h14.869c2.084-2.535,2.534-2.872,2.985-2.872.563,0,1.014.337,3.21,2.14,1.014.9,1.351,1.3,1.351,1.745,0,.564-.337.958-1.689,1.859,0,9.4.225,13.348.225,16.671,0,1.633-1.014,2.252-3.21,2.252-1.577,0-2.309-.394-2.309-1.745V60.428Zm7.941-17.178h-16V45c-.056,5.688-.113,10.307-.338,14.136h16.333Z" fill="#e8c26b"/>
      <path id="パス_24" data-name="パス 24" d="M174.787,44.08c0,1.219-.636,1.909-2.228,2.493-1.7.583-4.508,1.219-7.849,2.015-2.971,6.947-5.994,13.79-8.54,19.147a10.077,10.077,0,0,1-2.121,3.341,2.775,2.775,0,0,1-1.379.424,2.078,2.078,0,0,1-1.644-.688,2.131,2.131,0,0,1-.743-1.7c0-.9.955-2.281,1.75-3.5a112.538,112.538,0,0,0,8.752-16.124c-1.273.159-3.607.476-4.827.476a6.676,6.676,0,0,1-3.448-.689,7.027,7.027,0,0,1-3.129-3.4,2.18,2.18,0,0,1-.212-.9c0-.265.265-.317.371-.317.159,0,.265.052.584.317a6.157,6.157,0,0,0,2.386,1.274,10.576,10.576,0,0,0,2.6.266,39.483,39.483,0,0,0,7.16-1.008c1.432-3.819,1.75-5.516,1.75-6.684,0-1.272-.371-1.591-3.182-2.652-.266-.106-.425-.265-.425-.477a.927.927,0,0,1,.531-.69,4.617,4.617,0,0,1,2.334-.53,11.243,11.243,0,0,1,5.3,1.75,2.018,2.018,0,0,1,1.166,1.963,1.613,1.613,0,0,1-.689,1.378c-.743.584-1.273,1.486-2.652,4.881a13.774,13.774,0,0,0,3.5-1.591,4.531,4.531,0,0,1,2.228-.69c1.7.106,2.652,1.167,2.652,1.91m1.538,6.418a18.662,18.662,0,0,0-2.492.051,8.972,8.972,0,0,1-1.008.108c-.318,0-.531-.108-.531-.372,0-.319.265-.53.637-.689a12.913,12.913,0,0,1,5.516-1.061,18.5,18.5,0,0,1,8.964,2.333c1.856,1.114,2.439,2.334,2.439,3.448,0,1.219-.53,2.069-1.856,2.069a4.186,4.186,0,0,1-2.068-.85c-2.016-1.643-3.13-1.855-4.138-1.855a3.861,3.861,0,0,0-2.386.688,3.746,3.746,0,0,0-1.963,3.714,43.272,43.272,0,0,0,1.8,9.865c8.169,2.759,10.343,4.933,10.343,7a2.085,2.085,0,0,1-2.068,2.333A4.219,4.219,0,0,1,184.44,75.8a22.459,22.459,0,0,0-4.985-3.714,6.582,6.582,0,0,1-2.653,5.835A10.5,10.5,0,0,1,170.65,79.4a9.551,9.551,0,0,1-6.046-2.014,5.213,5.213,0,0,1-2.122-4.033,5.533,5.533,0,0,1,2.228-4.4,10.9,10.9,0,0,1,6.364-1.91,26.183,26.183,0,0,1,3.819.266c-.212-2.811-.371-5.623-.371-7.9,0-4.56,3.554-6.524,7.054-7.319a10.968,10.968,0,0,0-5.251-1.59m-5.94,19.252a8.957,8.957,0,0,0-4.562.85,2.714,2.714,0,0,0,0,4.666,7.753,7.753,0,0,0,3.767.849c1.7,0,3.553-.372,4.455-1.273a4.629,4.629,0,0,0,1.167-3.447,3.7,3.7,0,0,0-.054-.743,13.989,13.989,0,0,0-4.773-.9"/>
      <path id="パス_25" data-name="パス 25" d="M208.151,67.565c0,1.821-1.4,2.591-3.711,2.591-2.171,0-2.871-.63-2.871-2.171,0-4.972.28-10.153.28-30.18,0-6.442-.07-12.884-.421-19.4a53.042,53.042,0,0,1,7.213,3.571h6.022c2.311-2.8,2.871-3.221,3.431-3.221.7,0,1.331.42,3.851,2.381,1.121.84,1.541,1.33,1.541,1.891s-.351,1.05-1.891,2.17v6.582c0,17.366.35,29.34.35,33.331,0,1.821-1.33,2.731-3.851,2.731-1.891,0-2.661-.56-2.661-2.171v-2.52h-7.282Zm7.282-43.974H208.15V41.167h7.283Zm0,19.186H208.15V61.543h7.283Zm28.779-3.851h9.663c3.081-3.852,3.922-4.412,4.412-4.412.63,0,1.4.56,4.621,3.081,1.4,1.19,1.961,1.751,1.961,2.241s-.21.7-.91.7H227.827a24.231,24.231,0,0,0-4.131.42l-.771-2.59a20.715,20.715,0,0,0,4.692.56h9.943V28.282h-7.912a22.786,22.786,0,0,0-3.992.42l-.77-2.59a19.676,19.676,0,0,0,4.622.56h8.052V20.72a49.955,49.955,0,0,0-.35-5.532c8.473.77,9.243,1.541,9.243,2.241s-.77,1.33-2.241,1.891v7.352h6.582c3.012-3.782,3.852-4.342,4.342-4.342.63,0,1.4.56,4.621,3.011,1.471,1.191,2.031,1.751,2.031,2.241s-.21.7-.91.7H244.212Zm9.453,21.216c0,2.591.21,8.613.21,11.2,0,2.941-.279,3.921-1.61,5.252a9.3,9.3,0,0,1-6.722,2.591,1.021,1.021,0,0,1-1.121-.91c-.56-3.642-2.52-4.622-8.052-6.022-.35-.071-.35-.841,0-.841,3.571.21,6.862.28,9.523.28.98,0,1.261-.21,1.261-1.12V52.44H227.967a24.231,24.231,0,0,0-4.131.42l-.77-2.591a20.587,20.587,0,0,0,4.691.56h19.4V47.748a38.22,38.22,0,0,0-.351-5.6c6.933.63,9.033,1.12,9.033,2.1,0,.7-.63,1.191-2.171,1.961v4.621h1.681c2.591-3.081,3.432-3.641,3.922-3.641.63,0,1.33.56,3.78,2.591.981.84,1.541,1.471,1.541,1.961s-.21.7-.91.7H253.665Zm-17.365,7.7c-1.821,0-2.521-1.19-3.361-4.481-.91-3.5-2.031-5.322-4.132-7-.279-.21.071-.63.421-.56,7.632,1.541,10.923,4.062,10.923,7.7,0,2.66-1.4,4.341-3.851,4.341"/>
      <path id="パス_26" data-name="パス 26" d="M278.065,42.269v38.36c0,1.873-1.318,2.705-3.954,2.705-2.011,0-2.844-.694-2.844-2.5,0-5.134.416-10.2.416-30.73,0-10.335-.07-20.671-.486-31.006a42.231,42.231,0,0,1,7.353,3.537H290.9c2.358-2.7,2.913-3.121,3.468-3.121.694,0,1.248.416,3.746,2.427,1.11.9,1.526,1.388,1.526,1.943,0,.624-.485,1.11-2.012,2.081v2.774c0,7.353.139,12.417.139,14.082s-1.318,2.358-3.746,2.358c-1.8,0-2.5-.555-2.5-2.011v-.9Zm13.457-18.036H278.065v7.145h13.457Zm0,8.741H278.065v7.7h13.457Zm2.011,38.637v2.428c0,1.942-1.04,2.635-3.606,2.635-1.873,0-2.706-.624-2.706-2.15,0-2.289.208-4.717.208-13.942,0-4.3-.069-8.671-.347-13.041a43.8,43.8,0,0,1,7.075,3.4h13.111c2.289-2.567,2.845-2.983,3.4-2.983.694,0,1.318.347,3.677,2.289,1.248.971,1.664,1.457,1.664,2.011s-.555,1.041-1.942,1.943v3.121c0,8.255.069,13.873.069,15.746,0,1.943-1.04,2.636-3.537,2.636-1.873,0-2.5-.693-2.5-2.08V71.611ZM308.1,52.535H293.534V60.1H308.1Zm0,9.157H293.534v8.324H308.1Zm2.358-19.423v.347c0,1.8-1.179,2.566-3.469,2.566-1.942,0-2.774-.555-2.774-2.081,0-2.636.139-5.341.139-16.162,0-2.567-.07-5.2-.278-7.838a56.922,56.922,0,0,1,7.145,3.537h12.417c2.428-2.7,3.052-3.121,3.606-3.121.7,0,1.249.416,3.816,2.5,1.179,1.04,1.6,1.526,1.6,2.081,0,.694-.416,1.179-1.873,2.012V34.43c0,38.637.07,40.441.07,42.314a6.148,6.148,0,0,1-1.388,4.162c-1.179,1.318-3.19,2.012-6.034,2.012-.9,0-1.18-.208-1.249-.972-.347-3.191-1.6-4.231-6.867-5.618-.347-.07-.347-.9,0-.9,4.162.277,5.2.347,8.047.347.693,0,.832-.139.832-.971V42.269Zm13.735-18.036H310.46v7.145h13.734Zm0,8.741H310.46v7.7h13.734Z"/>
    </g>
  </g>
</svg>
