<svg xmlns="http://www.w3.org/2000/svg" xmlns:xlink="http://www.w3.org/1999/xlink" width="546.656" height="204.794" viewBox="0 0 546.656 204.794">
  <defs>
    <clipPath id="clip-path">
      <rect id="長方形_36" data-name="長方形 36" width="427.727" height="86.506" transform="translate(0 0)" fill="none"/>
    </clipPath>
    <clipPath id="clip-path-2">
      <rect id="長方形_37" data-name="長方形 37" width="332.656" height="88.794" transform="translate(0 0)" fill="none"/>
    </clipPath>
  </defs>
  <g id="グループ_30" data-name="グループ 30" transform="translate(-443 -1978)">
    <g id="グループ_4" data-name="グループ 4" transform="translate(325 1989)">
      <g id="グループ_3" data-name="グループ 3" transform="translate(118 -11)" clip-path="url(#clip-path)">
        <path id="パス_15" data-name="パス 15" d="M.681,85.32c-.482.1-.963-1.155-.482-1.348Q24.178,73.861,37.948,56.334A72.185,72.185,0,0,1,31.881,45.26c-1.444-3.37-4.429-10.689-5.007-12.615a4.938,4.938,0,0,0-1.637-2.792c-.963-.771-1.059-.867-1.059-1.349,0-.77,2.5-2.118,3.948-2.118a1.036,1.036,0,0,1,.963.963c0,.481-.289,1.637-.289,2.118a14.166,14.166,0,0,0,1.637,5.1A80.919,80.919,0,0,0,41.415,51.712a86.72,86.72,0,0,0,4.815-8.186,80.607,80.607,0,0,0,6.741-18.777C61.83,28.6,65.49,30.719,65.49,32.356c0,1.349-1.156,2.022-4.141,2.119-3.852,9.34-8.185,17.141-13.482,23.689,1.252,1.06,2.5,2.023,3.852,2.985,8.763,6.163,19.645,9.63,35.149,11.653.481.1.481,1.058,0,1.252-3.949,1.636-5.489,3.466-6.549,7.992-.481,2.119-.77,2.7-1.733,2.7a23.091,23.091,0,0,1-6.741-1.926c-8.57-3.466-16.37-7.8-23.111-13.963a57.873,57.873,0,0,1-5.393-5.489C32.941,73.86,19.363,80.7.681,85.32M33.133,8.763A73.252,73.252,0,0,1,2.318,35.727c-.482.192-1.155-.674-.771-.963,6.645-5.778,12.9-14.156,17.816-22.342A62.987,62.987,0,0,0,25.044,0c9.245,3.467,12.519,5.2,12.519,6.548s-.963,1.83-4.43,2.215M76.564,32.645c-2.7,0-3.082-.385-6.741-6.645A90.221,90.221,0,0,0,49.408,2.6c-.386-.289.1-1.156.577-.963,20.7,8.378,31.1,16.948,31.1,25.615,0,3.082-1.926,5.393-4.526,5.393" fill="#076e95"/>
        <path id="パス_16" data-name="パス 16" d="M120.107,47.361a22.918,22.918,0,0,1-1.24,5.97,40.381,40.381,0,0,1-3.548,8.11,46.307,46.307,0,0,1-6.251,9.406,6.19,6.19,0,0,1-4.675,2.309,5.711,5.711,0,0,1-4.28-2.2c-2.027-2.253-3.1-5.126-3.1-10.251a17.59,17.59,0,0,1,2.422-8.56,21.761,21.761,0,0,1,7.6-7.885A25.24,25.24,0,0,1,120.67,40.6c6.139,0,10.532,1.69,13.967,4.393,4.112,3.322,6.59,7.828,6.59,14.305a15.3,15.3,0,0,1-5.182,11.6,24.57,24.57,0,0,1-8.335,5.013,40.1,40.1,0,0,1-11.546,2.14c-.845,0-1.239-.113-1.239-.563s.338-.563,1.07-.732c6.646-1.465,11.095-4,14.474-7.378,3.493-3.605,5.069-7.153,5.069-13.067,0-4-1.295-8.053-4.956-10.587a17.749,17.749,0,0,0-9.011-3.042,25.385,25.385,0,0,0-3.548.056,7.735,7.735,0,0,1,2.084,4.618m-13.686.226a17.15,17.15,0,0,0-4.788,6.927,14.663,14.663,0,0,0-.957,5.35,11.193,11.193,0,0,0,1.408,6.083,3.636,3.636,0,0,0,2.478,1.859c.9,0,1.746-.564,3.886-3.605A68.324,68.324,0,0,0,116,50.4a13.052,13.052,0,0,0,1.183-4.787,2.832,2.832,0,0,0-1.014-2.534,18.951,18.951,0,0,0-9.743,4.506" fill="#076e95"/>
        <path id="パス_17" data-name="パス 17" d="M160.162,81.094v2.894c0,1.826-1.258,2.518-3.777,2.518-1.951,0-2.706-.566-2.706-2.076,0-5.162.378-10.386.378-31.157,0-6.8-.063-13.6-.315-20.393a39.176,39.176,0,0,1,7.3,3.587H185.4c2.644-2.832,3.147-3.21,3.651-3.21.629,0,1.133.378,3.713,2.518,1.133,1.007,1.511,1.447,1.511,1.951,0,.63-.44,1.07-1.888,2.014v7.175c0,19.009.377,32.1.377,36.445,0,1.825-1.384,2.58-3.9,2.58-2.014,0-2.707-.629-2.707-2.078V81.094Zm25.995-43.179H160.162V57.491h25.995Zm0,21.023H160.162V79.646h25.995Z" fill="#076e95"/>
        <path id="パス_18" data-name="パス 18" d="M216.988,65.666a12.526,12.526,0,0,0-.338,3.154c0,1.183.338,2.647.338,3.21.056,1.577-.338,2.534-1.577,2.534-1.634,0-2.14-.562-3.661-3.491-1.126-2.2-1.859-6.421-1.859-10.532,0-4.787.958-9.743,2.422-15.826a34.3,34.3,0,0,0,1.127-5.744,7.507,7.507,0,0,0-1.465-4.45.857.857,0,0,1-.225-.563c0-.169.281-.451.788-.451a5.435,5.435,0,0,1,2.7,1.408,12.535,12.535,0,0,1,2.591,3.379,6.112,6.112,0,0,1,.957,3.1A2.956,2.956,0,0,1,218,43.42a11.927,11.927,0,0,0-1.747,3.1c-1.238,2.873-2.872,7.941-2.872,12.053,0,3.379.169,4.9.62,5.688a.234.234,0,0,0,.45,0c1.746-3.323,3.492-7.1,5.069-10.363.225-.506.507-.675.789-.675s.563.338.281,1.182c-1.464,4.449-2.985,8.786-3.6,11.264m8.954-6.646a8.973,8.973,0,0,0,.676,3.6c.958,2.253,3.605,4.168,9.631,4.168a33.829,33.829,0,0,0,7.322-.507,6.372,6.372,0,0,1,2.309-.62,9.091,9.091,0,0,1,3.267.9,2.367,2.367,0,0,1,1.52,2.14,2.313,2.313,0,0,1-1.746,2.2c-1.239.45-4,.957-9.461.957-9.575,0-15.151-3.942-15.151-10.87a12.931,12.931,0,0,1,1.408-6.139c.282-.506.394-.619.62-.619s.338.225.338.564a19.44,19.44,0,0,0-.733,4.223m1.521-15.15a4.634,4.634,0,0,1-1.183.451c-.45,0-.506-.169-.506-.507q0-.337.675-.845a26.943,26.943,0,0,1,7.04-3.717,20.977,20.977,0,0,1,7.266-1.183c5.125,0,6.7,1.8,6.7,3.323,0,1.577-1.014,2.083-3.435,2.083-.733,0-1.915-.168-2.648-.168a14.115,14.115,0,0,0-3.323.394c-1.633.451-3.041,1.07-6.589,4a1.089,1.089,0,0,1-.732.338.356.356,0,0,1-.394-.395c0-.169.056-.337.394-.732.9-1.126,2.14-2.365,3.886-4.393a17.08,17.08,0,0,0-7.153,1.352"/>
        <path id="パス_19" data-name="パス 19" d="M270.35,55.9c0,2.222-1.428,3.1-4.126,3.1-2.3,0-3.017-.794-3.017-2.54,0-4.207.318-8.812.318-25.639,0-6.191-.08-12.462-.318-18.733a36.472,36.472,0,0,1,7.461,4.286h6.9c2.542-3.333,3.177-3.81,3.811-3.81.793,0,1.429.477,4.207,2.7,1.19,1.032,1.667,1.588,1.667,2.223,0,.794-.556,1.428-2.3,2.619v5.239c0,13.732.159,23.813.159,26.909,0,2.381-1.431,3.175-4.288,3.175-1.9,0-2.777-.794-2.777-2.619V50.259h-7.7Zm7.7-37.7h-7.7V48.433h7.7ZM310.6,40.655a38.8,38.8,0,0,0,9.366,13.812,39.576,39.576,0,0,0,15.478,8.81c.4.079.4.714,0,.873-2.222.794-3.016,1.9-4.206,5.715-.476,1.588-.635,1.984-1.271,1.984a5.355,5.355,0,0,1-2.143-1.19A38.993,38.993,0,0,1,317.738,60.34,56.474,56.474,0,0,1,309.8,42.322c.476,21.749.794,28.575.794,33.1,0,2.54-1.587,3.492-4.763,3.492-2.3,0-3.1-.952-3.1-2.779,0-2.857.555-15.24.714-26.431C296.625,60.26,285.432,68.515,274,72.643c-.4.159-.795-.634-.477-.873a74.65,74.65,0,0,0,26.909-31.115h-6.827a47.647,47.647,0,0,0-6.191.476l-.874-2.937a39.792,39.792,0,0,0,6.986.635h9.524V23.986h-6.825a47.622,47.622,0,0,0-6.192.476l-.873-2.937a39.879,39.879,0,0,0,6.985.635h6.9V16.842a74.043,74.043,0,0,0-.635-10.954c9.288,1.111,10.241,1.429,10.241,2.54,0,.873-.715,1.508-2.541,2.064V22.16h8.176c3.254-4.445,4.207-5.08,4.762-5.08.715,0,1.508.635,5,3.572,1.508,1.27,2.144,1.984,2.144,2.54s-.239.794-1.033.794h-19.05V38.829h10.32c3.651-5,4.6-5.636,5.158-5.636.715,0,1.508.635,5.081,3.89,1.587,1.508,2.223,2.222,2.223,2.778s-.239.794-1.033.794Z"/>
        <path id="パス_20" data-name="パス 20" d="M359.974,48.219c6.2-4.844,10.644-6.871,15.713-6.871,4.224,0,7.491,1.239,9.969,3.661a11.244,11.244,0,0,1,3.379,8.5,14.447,14.447,0,0,1-5.406,11.264,27.851,27.851,0,0,1-9.913,5.181,27.191,27.191,0,0,1-6.2,1.24c-.281,0-.619-.113-.619-.507a.561.561,0,0,1,.394-.564c.507-.169,2.14-.732,3.379-1.295a24.991,24.991,0,0,0,9.011-6.364,13.088,13.088,0,0,0,3.717-9.181,9.453,9.453,0,0,0-2.365-6.476,8.84,8.84,0,0,0-6.871-2.985c-4.337,0-9.18,2.535-14.249,6.815v3.717c0,5.012.394,9.743.394,10.926,0,.9,0,1.577-.056,3.21-.169,3.379-1.24,5.125-2.816,5.125-.733,0-2.028-.563-2.14-3.6-.113-1.69-1.352-4-5.069-7.6a28.933,28.933,0,0,1-2.7,3.774,2.555,2.555,0,0,1-2.365,1.014,1.752,1.752,0,0,1-1.8-1.747,3.993,3.993,0,0,1,1.182-3.041c2.7-3.153,5.182-5.857,7.716-9.067a55.466,55.466,0,0,0,4.393-6.026c.056-1.577.113-2.985.056-4.506-1.069.394-2.365,1.014-4.054,1.8a11.126,11.126,0,0,0-1.8,1.239,1.687,1.687,0,0,1-1.3.619,2.488,2.488,0,0,1-2.028-.957c-1.914-1.915-2.59-3.38-2.59-4.337,0-.845.394-1.408.676-1.408s.338.225.563.507c.788,1.013,1.577,1.858,2.872,1.858,1.521,0,4.674-1.126,7.885-2.477.112-3.38.225-5.464.225-7.266,0-1.3,0-2.365-.676-3.041a4.865,4.865,0,0,0-2.084-1.07c-.676-.226-.788-.282-.788-.676,0-.507,1.521-1.183,2.816-1.183a6.3,6.3,0,0,1,3.379,1.239c2.309,1.521,3.042,2.253,3.042,3.323a2.246,2.246,0,0,1-.789,1.521,3.034,3.034,0,0,0-.9,1.633,29.97,29.97,0,0,0-.394,3.942,1.537,1.537,0,0,1,1.408.113,7.672,7.672,0,0,1,1.52.958,1.559,1.559,0,0,1,.62,1.351c-.057.45-.676.9-1.183,1.408a26.432,26.432,0,0,0-3.1,4.731ZM354.68,63.763a3.7,3.7,0,0,0,1.352.507c.281,0,.394-.225.394-1.183,0-3.548,0-5.744.056-9.236-2.253,2.872-3.773,4.956-5.575,7.6a39.151,39.151,0,0,0,3.773,2.309"/>
        <path id="パス_21" data-name="パス 21" d="M417.589,40.576a9.552,9.552,0,0,1,7.492,3.661c1.632,1.916,2.646,4.675,2.646,9.18a20.612,20.612,0,0,1-3.773,11.039,22.592,22.592,0,0,1-6.2,5.97,27.316,27.316,0,0,1-6.871,3.323,20.875,20.875,0,0,1-2.928.733c-.507.055-.788-.114-.788-.4,0-.338.394-.507.957-.788a25.779,25.779,0,0,0,9.575-7.547c2.927-3.661,4.28-8.055,4.28-13.4,0-2.648-.282-5.464-1.239-6.871a4.408,4.408,0,0,0-4.056-2.366c-2.646,0-6.308,2.7-9.011,6.026-.788.958-1.126,1.351-2.084,1.351a5.513,5.513,0,0,1-3.21-9.292.861.861,0,0,1,.563-.337c.394,0,.451.281.394.731a8.511,8.511,0,0,0,0,1.689,1.122,1.122,0,0,0,1.3,1.015,9.939,9.939,0,0,0,3.773-1.183c4.338-1.915,6.76-2.535,9.18-2.535m-10.813-13.8a2.921,2.921,0,0,1-.112-.62c0-.394.056-.619.225-.619.225,0,.394.113.732.45,2.309,2.535,6.083,3.38,9.349,3.38,1.69,0,3.436-.056,4.787.732,1.409.788,2.422,1.8,2.422,3.21,0,1.071-.9,1.746-2.872,1.746a23.439,23.439,0,0,0-3.492-.112,20.2,20.2,0,0,0-3.661.619,32.649,32.649,0,0,0-4.167,1.3,3.441,3.441,0,0,1-1.3.394c-.282,0-.451-.113-.451-.394s.338-.451.9-.845c1.238-.789,3.21-1.915,4.336-2.817a9.97,9.97,0,0,1-6.7-6.42"/>
      </g>
    </g>
    <g id="グループ_6" data-name="グループ 6" transform="translate(651 2099)">
      <g id="グループ_5" data-name="グループ 5" transform="translate(6 -5)" clip-path="url(#clip-path-2)">
        <path id="パス_22" data-name="パス 22" d="M19.186,19.95a25.021,25.021,0,0,0-.269-3.579c8.946.715,9.841,1.431,9.841,2.147,0,.627-.805,1.163-2.594,1.7v1.61h6.978c2.683-3.221,3.757-3.936,4.383-3.936.805,0,1.7.715,4.294,2.862.984.806,1.7,1.611,1.7,2.237s-.268.9-1.163.9H21.6a31.721,31.721,0,0,1-.806,4.2h11.72c2.147-2.5,2.863-3.041,3.579-3.041.894,0,1.61.537,4.115,2.505,1.074.894,1.61,1.521,1.61,2.237,0,.626-.268.894-2.236,2.236a18.264,18.264,0,0,1-1.253,4.652,7.5,7.5,0,0,1-3.936,4.294,13.022,13.022,0,0,1-4.473.716c-1.252,0-1.61-.269-1.968-1.342-.895-2.6-2.058-3.4-6.352-4.652-.448-.089-.268-1.074.179-.984a82.307,82.307,0,0,0,8.23.626c1.074,0,1.521-.089,1.969-1.431.178-.8.357-1.968.626-3.758H20.08C17.127,37.574,11.044,42.226.667,45.267c-.448.09-.895-.894-.537-1.073C8.9,39.363,13.1,33.279,14.086,23.886H9.792a43.358,43.358,0,0,0-6.263.536l-.984-3.31a37.949,37.949,0,0,0,7.247.716h9.394Zm6.978-6.263h9.661c2.774-2.952,3.847-3.668,4.473-3.668.806,0,1.879.716,4.474,2.6,1.163.894,1.878,1.61,1.878,2.236s-.268.895-1.163.895H6.75a26.412,26.412,0,0,0-4.831.537L.935,12.971a26.368,26.368,0,0,0,5.994.716H19.186V8.767H11.67A42.224,42.224,0,0,0,5.5,9.3l-.984-3.31a37.083,37.083,0,0,0,7.156.716h7.516V4.741A46.967,46.967,0,0,0,18.917,0c8.946.894,9.841,1.789,9.841,2.594,0,.626-.805,1.252-2.594,2.057V6.709h5.815c2.594-2.773,3.668-3.489,4.294-3.489.805,0,1.878.716,4.294,2.5,1.073.805,1.789,1.521,1.789,2.147s-.268.895-1.163.895H26.164Zm5.815,63.429c-8.321,4.473-16.819,6.531-28.45,6.978-.447,0-.626-.984-.178-1.163A77.684,77.684,0,0,0,21.69,74.79,20.136,20.136,0,0,0,26.611,70.5c8.588,4.115,9.483,4.741,9.483,5.636s-.358,1.074-4.115.984m-8.947-6.8c0,2.058-1.521,2.863-4.562,2.863-2.416,0-3.758-.805-3.758-2.863,0-2.773.448-5.636.448-16.909,0-5.01-.09-10.019-.448-15.029a49.341,49.341,0,0,1,9.573,4.473H59.8c2.863-3.221,3.579-3.758,4.294-3.758.895,0,1.7.537,4.921,2.953,1.431,1.163,1.968,1.789,1.968,2.5,0,.805-.179,1.073-2.416,2.773v3.668c0,9.483.358,16.1.358,18.25s-1.878,3.221-4.831,3.221c-2.236,0-3.4-.716-3.4-2.326v-.179H23.032ZM60.7,44.91H23.032v5.9H60.7ZM23.032,59.134H60.7V52.872H23.032Zm0,8.767H60.7v-6.71H23.032ZM75.189,13.419A40.141,40.141,0,0,1,65.438,28.27c4.92,2.236,10.914,3.578,18.429,4.294.447,0,.447.984,0,1.073-3.31.984-4.742,2.5-5.458,5.9-.268,1.073-.715,1.61-1.52,1.61a10.588,10.588,0,0,1-3.579-1.163,47.366,47.366,0,0,1-12.435-8.141c-5.726,3.847-12.883,6.352-21.829,7.873-.447.089-.805-.985-.358-1.163,7.873-3.042,13.777-6.442,18.34-10.646a39.81,39.81,0,0,1-6.173-10.02,41.548,41.548,0,0,1-6.441,5.457c-.358.268-.984-.268-.716-.626a59.892,59.892,0,0,0,6.71-14.046A42.519,42.519,0,0,0,52.376.357c9.036,2.326,9.662,2.5,9.662,3.579,0,.715-.895,1.252-2.863,1.7-1.073,2.058-2.147,3.937-3.31,5.726H70.089c3.4-4.115,4.474-4.831,5.1-4.831.805,0,1.789.716,5.368,3.4,1.52,1.252,2.236,1.968,2.236,2.594s-.269.895-1.163.895ZM71.968,84.541a8.529,8.529,0,0,1-5.725-2.326c-4.742-3.936-9.662-6.352-18.429-9.125-.448-.179-.358-.895.089-.895,20.218.269,28.538,2.5,28.538,7.784a4.449,4.449,0,0,1-4.473,4.562M54.523,13.419c-.9,1.163-1.7,2.236-2.684,3.31a35.175,35.175,0,0,0,8.052,8.231,39.994,39.994,0,0,0,6.62-11.541Z" fill="#e8c26b"/>
        <path id="パス_23" data-name="パス 23" d="M98.551,72.424a12.417,12.417,0,0,0-1.014,3.66c0,2.929,2.2,5.351,2.2,8.336a3.742,3.742,0,0,1-3.661,4c-1.8,0-2.7-.958-2.7-2.929,0-1.464.45-3.661.45-5.519,0-3.661-.45-4.224-4.393-5.689-.281-.112-.169-.957.113-.9a15.235,15.235,0,0,0,2.309.338c1.239,0,2.084-.282,3.323-2.14a214.475,214.475,0,0,0,10.982-18.586c.113-.225.845,0,.732.282-2.534,6.758-5.575,12.9-8.335,19.149m-1.8-11.546c-1.352,0-1.859-.845-2.929-3.323A11.678,11.678,0,0,0,89.934,52.6c-.225-.169-.056-.451.225-.451,6.027.507,9.349,2.478,9.349,5.689a2.743,2.743,0,0,1-2.759,3.041M101.2,47.7c-1.633,0-2.027-.788-3.21-3.435a12.034,12.034,0,0,0-4-5.069c-.225-.169-.056-.45.226-.45,6.026.45,9.518,2.59,9.518,5.857,0,2.084-1.3,3.1-2.535,3.1m21.909,12.729a30.506,30.506,0,0,0,5.857,12.39c3.267,4,7.772,7.1,13.855,9.687a.3.3,0,0,1-.057.563,5.062,5.062,0,0,0-4,3.887c-.169.675-.451.957-.9.957a6.024,6.024,0,0,1-2.478-1.464,35.247,35.247,0,0,1-8.9-10.251c-2.309-4.167-3.773-9.067-4.731-15.769h-7.1c-.226,2.928-.451,5.294-.789,7.265a32.075,32.075,0,0,1-12.9,21.064c-.225.169-.62-.282-.451-.507a37.944,37.944,0,0,0,7.773-16.615A92.322,92.322,0,0,0,109.7,53.219c0-6.027-.112-9.856-.394-14.362a40.955,40.955,0,0,1,6.308,3.1h14.869c2.084-2.535,2.534-2.872,2.985-2.872.563,0,1.014.337,3.21,2.14,1.014.9,1.351,1.3,1.351,1.745,0,.564-.337.958-1.689,1.859,0,9.4.225,13.348.225,16.671,0,1.633-1.014,2.252-3.21,2.252-1.577,0-2.309-.394-2.309-1.745V60.428Zm7.941-17.178h-16V45c-.056,5.688-.113,10.307-.338,14.136h16.333Z" fill="#e8c26b"/>
        <path id="パス_24" data-name="パス 24" d="M174.787,44.08c0,1.219-.636,1.909-2.228,2.493-1.7.583-4.508,1.219-7.849,2.015-2.971,6.947-5.994,13.79-8.54,19.147a10.077,10.077,0,0,1-2.121,3.341,2.775,2.775,0,0,1-1.379.424,2.078,2.078,0,0,1-1.644-.688,2.131,2.131,0,0,1-.743-1.7c0-.9.955-2.281,1.75-3.5a112.538,112.538,0,0,0,8.752-16.124c-1.273.159-3.607.476-4.827.476a6.676,6.676,0,0,1-3.448-.689,7.027,7.027,0,0,1-3.129-3.4,2.18,2.18,0,0,1-.212-.9c0-.265.265-.317.371-.317.159,0,.265.052.584.317a6.157,6.157,0,0,0,2.386,1.274,10.576,10.576,0,0,0,2.6.266,39.483,39.483,0,0,0,7.16-1.008c1.432-3.819,1.75-5.516,1.75-6.684,0-1.272-.371-1.591-3.182-2.652-.266-.106-.425-.265-.425-.477a.927.927,0,0,1,.531-.69,4.617,4.617,0,0,1,2.334-.53,11.243,11.243,0,0,1,5.3,1.75,2.018,2.018,0,0,1,1.166,1.963,1.613,1.613,0,0,1-.689,1.378c-.743.584-1.273,1.486-2.652,4.881a13.774,13.774,0,0,0,3.5-1.591,4.531,4.531,0,0,1,2.228-.69c1.7.106,2.652,1.167,2.652,1.91m1.538,6.418a18.662,18.662,0,0,0-2.492.051,8.972,8.972,0,0,1-1.008.108c-.318,0-.531-.108-.531-.372,0-.319.265-.53.637-.689a12.913,12.913,0,0,1,5.516-1.061,18.5,18.5,0,0,1,8.964,2.333c1.856,1.114,2.439,2.334,2.439,3.448,0,1.219-.53,2.069-1.856,2.069a4.186,4.186,0,0,1-2.068-.85c-2.016-1.643-3.13-1.855-4.138-1.855a3.861,3.861,0,0,0-2.386.688,3.746,3.746,0,0,0-1.963,3.714,43.272,43.272,0,0,0,1.8,9.865c8.169,2.759,10.343,4.933,10.343,7a2.085,2.085,0,0,1-2.068,2.333A4.219,4.219,0,0,1,184.44,75.8a22.459,22.459,0,0,0-4.985-3.714,6.582,6.582,0,0,1-2.653,5.835A10.5,10.5,0,0,1,170.65,79.4a9.551,9.551,0,0,1-6.046-2.014,5.213,5.213,0,0,1-2.122-4.033,5.533,5.533,0,0,1,2.228-4.4,10.9,10.9,0,0,1,6.364-1.91,26.183,26.183,0,0,1,3.819.266c-.212-2.811-.371-5.623-.371-7.9,0-4.56,3.554-6.524,7.054-7.319a10.968,10.968,0,0,0-5.251-1.59m-5.94,19.252a8.957,8.957,0,0,0-4.562.85,2.714,2.714,0,0,0,0,4.666,7.753,7.753,0,0,0,3.767.849c1.7,0,3.553-.372,4.455-1.273a4.629,4.629,0,0,0,1.167-3.447,3.7,3.7,0,0,0-.054-.743,13.989,13.989,0,0,0-4.773-.9"/>
        <path id="パス_25" data-name="パス 25" d="M208.151,67.565c0,1.821-1.4,2.591-3.711,2.591-2.171,0-2.871-.63-2.871-2.171,0-4.972.28-10.153.28-30.18,0-6.442-.07-12.884-.421-19.4a53.042,53.042,0,0,1,7.213,3.571h6.022c2.311-2.8,2.871-3.221,3.431-3.221.7,0,1.331.42,3.851,2.381,1.121.84,1.541,1.33,1.541,1.891s-.351,1.05-1.891,2.17v6.582c0,17.366.35,29.34.35,33.331,0,1.821-1.33,2.731-3.851,2.731-1.891,0-2.661-.56-2.661-2.171v-2.52h-7.282Zm7.282-43.974H208.15V41.167h7.283Zm0,19.186H208.15V61.543h7.283Zm28.779-3.851h9.663c3.081-3.852,3.922-4.412,4.412-4.412.63,0,1.4.56,4.621,3.081,1.4,1.19,1.961,1.751,1.961,2.241s-.21.7-.91.7H227.827a24.231,24.231,0,0,0-4.131.42l-.771-2.59a20.715,20.715,0,0,0,4.692.56h9.943V28.282h-7.912a22.786,22.786,0,0,0-3.992.42l-.77-2.59a19.676,19.676,0,0,0,4.622.56h8.052V20.72a49.955,49.955,0,0,0-.35-5.532c8.473.77,9.243,1.541,9.243,2.241s-.77,1.33-2.241,1.891v7.352h6.582c3.012-3.782,3.852-4.342,4.342-4.342.63,0,1.4.56,4.621,3.011,1.471,1.191,2.031,1.751,2.031,2.241s-.21.7-.91.7H244.212Zm9.453,21.216c0,2.591.21,8.613.21,11.2,0,2.941-.279,3.921-1.61,5.252a9.3,9.3,0,0,1-6.722,2.591,1.021,1.021,0,0,1-1.121-.91c-.56-3.642-2.52-4.622-8.052-6.022-.35-.071-.35-.841,0-.841,3.571.21,6.862.28,9.523.28.98,0,1.261-.21,1.261-1.12V52.44H227.967a24.231,24.231,0,0,0-4.131.42l-.77-2.591a20.587,20.587,0,0,0,4.691.56h19.4V47.748a38.22,38.22,0,0,0-.351-5.6c6.933.63,9.033,1.12,9.033,2.1,0,.7-.63,1.191-2.171,1.961v4.621h1.681c2.591-3.081,3.432-3.641,3.922-3.641.63,0,1.33.56,3.78,2.591.981.84,1.541,1.471,1.541,1.961s-.21.7-.91.7H253.665Zm-17.365,7.7c-1.821,0-2.521-1.19-3.361-4.481-.91-3.5-2.031-5.322-4.132-7-.279-.21.071-.63.421-.56,7.632,1.541,10.923,4.062,10.923,7.7,0,2.66-1.4,4.341-3.851,4.341"/>
        <path id="パス_26" data-name="パス 26" d="M278.065,42.269v38.36c0,1.873-1.318,2.705-3.954,2.705-2.011,0-2.844-.694-2.844-2.5,0-5.134.416-10.2.416-30.73,0-10.335-.07-20.671-.486-31.006a42.231,42.231,0,0,1,7.353,3.537H290.9c2.358-2.7,2.913-3.121,3.468-3.121.694,0,1.248.416,3.746,2.427,1.11.9,1.526,1.388,1.526,1.943,0,.624-.485,1.11-2.012,2.081v2.774c0,7.353.139,12.417.139,14.082s-1.318,2.358-3.746,2.358c-1.8,0-2.5-.555-2.5-2.011v-.9Zm13.457-18.036H278.065v7.145h13.457Zm0,8.741H278.065v7.7h13.457Zm2.011,38.637v2.428c0,1.942-1.04,2.635-3.606,2.635-1.873,0-2.706-.624-2.706-2.15,0-2.289.208-4.717.208-13.942,0-4.3-.069-8.671-.347-13.041a43.8,43.8,0,0,1,7.075,3.4h13.111c2.289-2.567,2.845-2.983,3.4-2.983.694,0,1.318.347,3.677,2.289,1.248.971,1.664,1.457,1.664,2.011s-.555,1.041-1.942,1.943v3.121c0,8.255.069,13.873.069,15.746,0,1.943-1.04,2.636-3.537,2.636-1.873,0-2.5-.693-2.5-2.08V71.611ZM308.1,52.535H293.534V60.1H308.1Zm0,9.157H293.534v8.324H308.1Zm2.358-19.423v.347c0,1.8-1.179,2.566-3.469,2.566-1.942,0-2.774-.555-2.774-2.081,0-2.636.139-5.341.139-16.162,0-2.567-.07-5.2-.278-7.838a56.922,56.922,0,0,1,7.145,3.537h12.417c2.428-2.7,3.052-3.121,3.606-3.121.7,0,1.249.416,3.816,2.5,1.179,1.04,1.6,1.526,1.6,2.081,0,.694-.416,1.179-1.873,2.012V34.43c0,38.637.07,40.441.07,42.314a6.148,6.148,0,0,1-1.388,4.162c-1.179,1.318-3.19,2.012-6.034,2.012-.9,0-1.18-.208-1.249-.972-.347-3.191-1.6-4.231-6.867-5.618-.347-.07-.347-.9,0-.9,4.162.277,5.2.347,8.047.347.693,0,.832-.139.832-.971V42.269Zm13.735-18.036H310.46v7.145h13.734Zm0,8.741H310.46v7.7h13.734Z"/>
      </g>
    </g>
  </g>
</svg>
