<svg xmlns="http://www.w3.org/2000/svg" xmlns:xlink="http://www.w3.org/1999/xlink" width="427.727" height="86.506" viewBox="0 0 427.727 86.506">
  <defs>
    <clipPath id="clip-path">
      <rect id="長方形_36" data-name="長方形 36" width="427.727" height="86.506" transform="translate(0 0)" fill="none"/>
    </clipPath>
  </defs>
  <g id="父の日に味わう" transform="translate(-118 11)">
    <g id="グループ_3" data-name="グループ 3" transform="translate(118 -11)" clip-path="url(#clip-path)">
      <path id="パス_15" data-name="パス 15" d="M.681,85.32c-.482.1-.963-1.155-.482-1.348Q24.178,73.861,37.948,56.334A72.185,72.185,0,0,1,31.881,45.26c-1.444-3.37-4.429-10.689-5.007-12.615a4.938,4.938,0,0,0-1.637-2.792c-.963-.771-1.059-.867-1.059-1.349,0-.77,2.5-2.118,3.948-2.118a1.036,1.036,0,0,1,.963.963c0,.481-.289,1.637-.289,2.118a14.166,14.166,0,0,0,1.637,5.1A80.919,80.919,0,0,0,41.415,51.712a86.72,86.72,0,0,0,4.815-8.186,80.607,80.607,0,0,0,6.741-18.777C61.83,28.6,65.49,30.719,65.49,32.356c0,1.349-1.156,2.022-4.141,2.119-3.852,9.34-8.185,17.141-13.482,23.689,1.252,1.06,2.5,2.023,3.852,2.985,8.763,6.163,19.645,9.63,35.149,11.653.481.1.481,1.058,0,1.252-3.949,1.636-5.489,3.466-6.549,7.992-.481,2.119-.77,2.7-1.733,2.7a23.091,23.091,0,0,1-6.741-1.926c-8.57-3.466-16.37-7.8-23.111-13.963a57.873,57.873,0,0,1-5.393-5.489C32.941,73.86,19.363,80.7.681,85.32M33.133,8.763A73.252,73.252,0,0,1,2.318,35.727c-.482.192-1.155-.674-.771-.963,6.645-5.778,12.9-14.156,17.816-22.342A62.987,62.987,0,0,0,25.044,0c9.245,3.467,12.519,5.2,12.519,6.548s-.963,1.83-4.43,2.215M76.564,32.645c-2.7,0-3.082-.385-6.741-6.645A90.221,90.221,0,0,0,49.408,2.6c-.386-.289.1-1.156.577-.963,20.7,8.378,31.1,16.948,31.1,25.615,0,3.082-1.926,5.393-4.526,5.393" fill="#076e95"/>
      <path id="パス_16" data-name="パス 16" d="M120.107,47.361a22.918,22.918,0,0,1-1.24,5.97,40.381,40.381,0,0,1-3.548,8.11,46.307,46.307,0,0,1-6.251,9.406,6.19,6.19,0,0,1-4.675,2.309,5.711,5.711,0,0,1-4.28-2.2c-2.027-2.253-3.1-5.126-3.1-10.251a17.59,17.59,0,0,1,2.422-8.56,21.761,21.761,0,0,1,7.6-7.885A25.24,25.24,0,0,1,120.67,40.6c6.139,0,10.532,1.69,13.967,4.393,4.112,3.322,6.59,7.828,6.59,14.305a15.3,15.3,0,0,1-5.182,11.6,24.57,24.57,0,0,1-8.335,5.013,40.1,40.1,0,0,1-11.546,2.14c-.845,0-1.239-.113-1.239-.563s.338-.563,1.07-.732c6.646-1.465,11.095-4,14.474-7.378,3.493-3.605,5.069-7.153,5.069-13.067,0-4-1.295-8.053-4.956-10.587a17.749,17.749,0,0,0-9.011-3.042,25.385,25.385,0,0,0-3.548.056,7.735,7.735,0,0,1,2.084,4.618m-13.686.226a17.15,17.15,0,0,0-4.788,6.927,14.663,14.663,0,0,0-.957,5.35,11.193,11.193,0,0,0,1.408,6.083,3.636,3.636,0,0,0,2.478,1.859c.9,0,1.746-.564,3.886-3.605A68.324,68.324,0,0,0,116,50.4a13.052,13.052,0,0,0,1.183-4.787,2.832,2.832,0,0,0-1.014-2.534,18.951,18.951,0,0,0-9.743,4.506" fill="#076e95"/>
      <path id="パス_17" data-name="パス 17" d="M160.162,81.094v2.894c0,1.826-1.258,2.518-3.777,2.518-1.951,0-2.706-.566-2.706-2.076,0-5.162.378-10.386.378-31.157,0-6.8-.063-13.6-.315-20.393a39.176,39.176,0,0,1,7.3,3.587H185.4c2.644-2.832,3.147-3.21,3.651-3.21.629,0,1.133.378,3.713,2.518,1.133,1.007,1.511,1.447,1.511,1.951,0,.63-.44,1.07-1.888,2.014v7.175c0,19.009.377,32.1.377,36.445,0,1.825-1.384,2.58-3.9,2.58-2.014,0-2.707-.629-2.707-2.078V81.094Zm25.995-43.179H160.162V57.491h25.995Zm0,21.023H160.162V79.646h25.995Z" fill="#076e95"/>
      <path id="パス_18" data-name="パス 18" d="M216.988,65.666a12.526,12.526,0,0,0-.338,3.154c0,1.183.338,2.647.338,3.21.056,1.577-.338,2.534-1.577,2.534-1.634,0-2.14-.562-3.661-3.491-1.126-2.2-1.859-6.421-1.859-10.532,0-4.787.958-9.743,2.422-15.826a34.3,34.3,0,0,0,1.127-5.744,7.507,7.507,0,0,0-1.465-4.45.857.857,0,0,1-.225-.563c0-.169.281-.451.788-.451a5.435,5.435,0,0,1,2.7,1.408,12.535,12.535,0,0,1,2.591,3.379,6.112,6.112,0,0,1,.957,3.1A2.956,2.956,0,0,1,218,43.42a11.927,11.927,0,0,0-1.747,3.1c-1.238,2.873-2.872,7.941-2.872,12.053,0,3.379.169,4.9.62,5.688a.234.234,0,0,0,.45,0c1.746-3.323,3.492-7.1,5.069-10.363.225-.506.507-.675.789-.675s.563.338.281,1.182c-1.464,4.449-2.985,8.786-3.6,11.264m8.954-6.646a8.973,8.973,0,0,0,.676,3.6c.958,2.253,3.605,4.168,9.631,4.168a33.829,33.829,0,0,0,7.322-.507,6.372,6.372,0,0,1,2.309-.62,9.091,9.091,0,0,1,3.267.9,2.367,2.367,0,0,1,1.52,2.14,2.313,2.313,0,0,1-1.746,2.2c-1.239.45-4,.957-9.461.957-9.575,0-15.151-3.942-15.151-10.87a12.931,12.931,0,0,1,1.408-6.139c.282-.506.394-.619.62-.619s.338.225.338.564a19.44,19.44,0,0,0-.733,4.223m1.521-15.15a4.634,4.634,0,0,1-1.183.451c-.45,0-.506-.169-.506-.507q0-.337.675-.845a26.943,26.943,0,0,1,7.04-3.717,20.977,20.977,0,0,1,7.266-1.183c5.125,0,6.7,1.8,6.7,3.323,0,1.577-1.014,2.083-3.435,2.083-.733,0-1.915-.168-2.648-.168a14.115,14.115,0,0,0-3.323.394c-1.633.451-3.041,1.07-6.589,4a1.089,1.089,0,0,1-.732.338.356.356,0,0,1-.394-.395c0-.169.056-.337.394-.732.9-1.126,2.14-2.365,3.886-4.393a17.08,17.08,0,0,0-7.153,1.352"/>
      <path id="パス_19" data-name="パス 19" d="M270.35,55.9c0,2.222-1.428,3.1-4.126,3.1-2.3,0-3.017-.794-3.017-2.54,0-4.207.318-8.812.318-25.639,0-6.191-.08-12.462-.318-18.733a36.472,36.472,0,0,1,7.461,4.286h6.9c2.542-3.333,3.177-3.81,3.811-3.81.793,0,1.429.477,4.207,2.7,1.19,1.032,1.667,1.588,1.667,2.223,0,.794-.556,1.428-2.3,2.619v5.239c0,13.732.159,23.813.159,26.909,0,2.381-1.431,3.175-4.288,3.175-1.9,0-2.777-.794-2.777-2.619V50.259h-7.7Zm7.7-37.7h-7.7V48.433h7.7ZM310.6,40.655a38.8,38.8,0,0,0,9.366,13.812,39.576,39.576,0,0,0,15.478,8.81c.4.079.4.714,0,.873-2.222.794-3.016,1.9-4.206,5.715-.476,1.588-.635,1.984-1.271,1.984a5.355,5.355,0,0,1-2.143-1.19A38.993,38.993,0,0,1,317.738,60.34,56.474,56.474,0,0,1,309.8,42.322c.476,21.749.794,28.575.794,33.1,0,2.54-1.587,3.492-4.763,3.492-2.3,0-3.1-.952-3.1-2.779,0-2.857.555-15.24.714-26.431C296.625,60.26,285.432,68.515,274,72.643c-.4.159-.795-.634-.477-.873a74.65,74.65,0,0,0,26.909-31.115h-6.827a47.647,47.647,0,0,0-6.191.476l-.874-2.937a39.792,39.792,0,0,0,6.986.635h9.524V23.986h-6.825a47.622,47.622,0,0,0-6.192.476l-.873-2.937a39.879,39.879,0,0,0,6.985.635h6.9V16.842a74.043,74.043,0,0,0-.635-10.954c9.288,1.111,10.241,1.429,10.241,2.54,0,.873-.715,1.508-2.541,2.064V22.16h8.176c3.254-4.445,4.207-5.08,4.762-5.08.715,0,1.508.635,5,3.572,1.508,1.27,2.144,1.984,2.144,2.54s-.239.794-1.033.794h-19.05V38.829h10.32c3.651-5,4.6-5.636,5.158-5.636.715,0,1.508.635,5.081,3.89,1.587,1.508,2.223,2.222,2.223,2.778s-.239.794-1.033.794Z"/>
      <path id="パス_20" data-name="パス 20" d="M359.974,48.219c6.2-4.844,10.644-6.871,15.713-6.871,4.224,0,7.491,1.239,9.969,3.661a11.244,11.244,0,0,1,3.379,8.5,14.447,14.447,0,0,1-5.406,11.264,27.851,27.851,0,0,1-9.913,5.181,27.191,27.191,0,0,1-6.2,1.24c-.281,0-.619-.113-.619-.507a.561.561,0,0,1,.394-.564c.507-.169,2.14-.732,3.379-1.295a24.991,24.991,0,0,0,9.011-6.364,13.088,13.088,0,0,0,3.717-9.181,9.453,9.453,0,0,0-2.365-6.476,8.84,8.84,0,0,0-6.871-2.985c-4.337,0-9.18,2.535-14.249,6.815v3.717c0,5.012.394,9.743.394,10.926,0,.9,0,1.577-.056,3.21-.169,3.379-1.24,5.125-2.816,5.125-.733,0-2.028-.563-2.14-3.6-.113-1.69-1.352-4-5.069-7.6a28.933,28.933,0,0,1-2.7,3.774,2.555,2.555,0,0,1-2.365,1.014,1.752,1.752,0,0,1-1.8-1.747,3.993,3.993,0,0,1,1.182-3.041c2.7-3.153,5.182-5.857,7.716-9.067a55.466,55.466,0,0,0,4.393-6.026c.056-1.577.113-2.985.056-4.506-1.069.394-2.365,1.014-4.054,1.8a11.126,11.126,0,0,0-1.8,1.239,1.687,1.687,0,0,1-1.3.619,2.488,2.488,0,0,1-2.028-.957c-1.914-1.915-2.59-3.38-2.59-4.337,0-.845.394-1.408.676-1.408s.338.225.563.507c.788,1.013,1.577,1.858,2.872,1.858,1.521,0,4.674-1.126,7.885-2.477.112-3.38.225-5.464.225-7.266,0-1.3,0-2.365-.676-3.041a4.865,4.865,0,0,0-2.084-1.07c-.676-.226-.788-.282-.788-.676,0-.507,1.521-1.183,2.816-1.183a6.3,6.3,0,0,1,3.379,1.239c2.309,1.521,3.042,2.253,3.042,3.323a2.246,2.246,0,0,1-.789,1.521,3.034,3.034,0,0,0-.9,1.633,29.97,29.97,0,0,0-.394,3.942,1.537,1.537,0,0,1,1.408.113,7.672,7.672,0,0,1,1.52.958,1.559,1.559,0,0,1,.62,1.351c-.057.45-.676.9-1.183,1.408a26.432,26.432,0,0,0-3.1,4.731ZM354.68,63.763a3.7,3.7,0,0,0,1.352.507c.281,0,.394-.225.394-1.183,0-3.548,0-5.744.056-9.236-2.253,2.872-3.773,4.956-5.575,7.6a39.151,39.151,0,0,0,3.773,2.309"/>
      <path id="パス_21" data-name="パス 21" d="M417.589,40.576a9.552,9.552,0,0,1,7.492,3.661c1.632,1.916,2.646,4.675,2.646,9.18a20.612,20.612,0,0,1-3.773,11.039,22.592,22.592,0,0,1-6.2,5.97,27.316,27.316,0,0,1-6.871,3.323,20.875,20.875,0,0,1-2.928.733c-.507.055-.788-.114-.788-.4,0-.338.394-.507.957-.788a25.779,25.779,0,0,0,9.575-7.547c2.927-3.661,4.28-8.055,4.28-13.4,0-2.648-.282-5.464-1.239-6.871a4.408,4.408,0,0,0-4.056-2.366c-2.646,0-6.308,2.7-9.011,6.026-.788.958-1.126,1.351-2.084,1.351a5.513,5.513,0,0,1-3.21-9.292.861.861,0,0,1,.563-.337c.394,0,.451.281.394.731a8.511,8.511,0,0,0,0,1.689,1.122,1.122,0,0,0,1.3,1.015,9.939,9.939,0,0,0,3.773-1.183c4.338-1.915,6.76-2.535,9.18-2.535m-10.813-13.8a2.921,2.921,0,0,1-.112-.62c0-.394.056-.619.225-.619.225,0,.394.113.732.45,2.309,2.535,6.083,3.38,9.349,3.38,1.69,0,3.436-.056,4.787.732,1.409.788,2.422,1.8,2.422,3.21,0,1.071-.9,1.746-2.872,1.746a23.439,23.439,0,0,0-3.492-.112,20.2,20.2,0,0,0-3.661.619,32.649,32.649,0,0,0-4.167,1.3,3.441,3.441,0,0,1-1.3.394c-.282,0-.451-.113-.451-.394s.338-.451.9-.845c1.238-.789,3.21-1.915,4.336-2.817a9.97,9.97,0,0,1-6.7-6.42"/>
    </g>
  </g>
</svg>
