<svg xmlns="http://www.w3.org/2000/svg" width="341.875" height="230.554" viewBox="0 0 341.875 230.554">
  <g id="常温" transform="matrix(0.799, -0.602, 0.602, 0.799, -34.314, 163.432)">
    <text id="常" transform="matrix(0.845, -0.534, 0.534, 0.845, 26.166, 98.447)" fill="#f5a629" font-size="42" font-family="NotoSansJP-Regular, Noto Sans JP"><tspan x="0" y="0">常</tspan></text>
    <text id="温" transform="translate(60.824 76.435) rotate(-22.608)" fill="#f5a629" font-size="42" font-family="NotoSansJP-Regular, Noto Sans JP"><tspan x="0" y="0">温</tspan></text>
    <text id="で" transform="translate(98.71 60.552) rotate(-12.892)" fill="#f5a629" font-size="42" font-family="NotoSansJP-Regular, Noto Sans JP"><tspan x="0" y="0">で</tspan></text>
    <text id="美" transform="matrix(0.998, -0.057, 0.057, 0.998, 138.716, 51.304)" fill="#f5a629" font-size="42" font-family="NotoSansJP-Regular, Noto Sans JP"><tspan x="0" y="0">美</tspan></text>
    <text id="味" transform="translate(179.742 48.87) rotate(6.273)" fill="#f5a629" font-size="42" font-family="NotoSansJP-Regular, Noto Sans JP"><tspan x="0" y="0">味</tspan></text>
    <text id="し" transform="translate(220.621 53.263) rotate(15.966)" fill="#f5a629" font-size="42" font-family="NotoSansJP-Regular, Noto Sans JP"><tspan x="0" y="0">し</tspan></text>
    <text id="い" transform="translate(260.127 64.465) rotate(25.672)" fill="#f5a629" font-size="42" font-family="NotoSansJP-Regular, Noto Sans JP"><tspan x="0" y="0">い</tspan></text>
    <text id="の" transform="matrix(0.816, 0.578, -0.578, 0.816, 297.182, 82.172)" font-size="42" font-family="NotoSansJP-Regular, Noto Sans JP"><tspan x="0" y="0">の</tspan></text>
    <text id="で-2" data-name="で" transform="matrix(0.708, 0.706, -0.706, 0.708, 330.747, 105.839)" font-size="42" font-family="NotoSansJP-Regular, Noto Sans JP"><tspan x="0" y="0">で</tspan></text>
  </g>
</svg>
