<svg xmlns="http://www.w3.org/2000/svg" width="362.575" height="180.758" viewBox="0 0 362.575 180.758">
  <g id="届いてすぐでも" transform="translate(-13.232 135.036) rotate(-41)">
    <text id="届" transform="matrix(0.946, -0.326, 0.326, 0.946, 15.953, 66.5)" font-size="42" font-family="NotoSansJP-Regular, Noto Sans JP"><tspan x="0" y="0">届</tspan></text>
    <text id="い" transform="translate(50.266 55.902) rotate(-10)" font-size="42" font-family="NotoSansJP-Regular, Noto Sans JP"><tspan x="0" y="0">い</tspan></text>
    <text id="て" transform="translate(86.688 49)" font-size="42" font-family="NotoSansJP-Regular, Noto Sans JP"><tspan x="0" y="0">て</tspan></text>
    <text id="す" transform="translate(123.724 48.607) rotate(10)" font-size="42" font-family="NotoSansJP-Regular, Noto Sans JP"><tspan x="0" y="0">す</tspan></text>
    <text id="ぐ" transform="translate(159.645 55.054) rotate(19)" font-size="42" font-family="NotoSansJP-Regular, Noto Sans JP"><tspan x="0" y="0">ぐ</tspan></text>
    <text id="で" transform="matrix(0.875, 0.485, -0.485, 0.875, 194.611, 67.07)" font-size="42" font-family="NotoSansJP-Regular, Noto Sans JP"><tspan x="0" y="0">で</tspan></text>
    <text id="も" transform="translate(226.841 85.095) rotate(39)" font-size="42" font-family="NotoSansJP-Regular, Noto Sans JP"><tspan x="0" y="0">も</tspan></text>
    <text id="O" transform="matrix(0.643, 0.766, -0.766, 0.643, 261.849, 114.843)" fill="#fa2626" font-size="42" font-family="NotoSansJP-Regular, Noto Sans JP"><tspan x="0" y="0">O</tspan></text>
    <text id="K" transform="translate(325.958 119.317) rotate(63)" fill="#fa2626" font-size="42" font-family="NotoSansJP-Regular, Noto Sans JP"><tspan x="0" y="49">K</tspan></text>
    <text id="_" data-name="!" transform="matrix(0.469, 0.883, -0.883, 0.469, 302.096, 178.617)" font-size="42" font-family="NotoSansJP-Regular, Noto Sans JP"><tspan x="0" y="0">!</tspan></text>
  </g>
</svg>
