<svg id="MVロゴ" xmlns="http://www.w3.org/2000/svg" xmlns:xlink="http://www.w3.org/1999/xlink" width="694.194" height="115.052" viewBox="0 0 694.194 115.052">
  <defs>
    <clipPath id="clip-path">
      <rect id="長方形_35" data-name="長方形 35" width="694.194" height="115.052" fill="none"/>
    </clipPath>
  </defs>
  <g id="グループ_1" data-name="グループ 1" clip-path="url(#clip-path)">
    <path id="パス_4" data-name="パス 4" d="M14.022,48.622c-2.739,0-3.766-1.712-5.935-6.734C6.375,37.893,4.777,35.725.212,31.844c-.457-.342-.114-.913.456-.913,12.213,1.027,18.947,5.021,18.947,11.528,0,3.766-2.283,6.163-5.593,6.163m4.109,22.826a30.415,30.415,0,0,0-1.369,7.42c0,5.934,4.222,10.842,4.222,16.891,0,4.794-2.967,8.219-6.962,8.219-3.652,0-5.478-2.054-5.478-6.05,0-3.767.913-7.419.913-11.185,0-7.419-.913-8.561-8.9-11.528-.571-.228-.342-1.826.229-1.712a44.988,44.988,0,0,0,4.679.57c2.169,0,3.31,0,6.049-5.25,2.854-5.249,7.419-16.093,16.55-37.778.228-.571,1.6-.114,1.484.457C25.778,44.855,21.9,58.1,18.131,71.448m4.794-49.762c-3.31,0-4.109-1.6-6.506-6.962-2.054-4.452-3.652-6.62-8.1-10.273-.456-.342-.114-.912.457-.912,12.212.912,19.289,5.25,19.289,11.87,0,4.223-2.625,6.277-5.136,6.277M37.991,56.154c1.6-8.787,2.739-17.577,3.652-26.479A62.4,62.4,0,0,1,30.572,39.6c-.457.344-1.37-.569-1.027-1.027a102.271,102.271,0,0,0,12.44-24.424A75.057,75.057,0,0,0,45.752,0C57.736,3.881,60.019,4.908,60.019,6.278S58.535,8.56,55.339,8.9a66.11,66.11,0,0,1-4.109,7.989h35.5c5.478-6.962,6.848-7.875,7.647-7.875,1.027,0,2.283.913,7.875,5.478,2.511,2.054,3.424,3.081,3.424,3.881s-.342,1.141-1.484,1.141H49.519q-2.912,4.28-6.164,8.218A91.619,91.619,0,0,1,51.916,32.3H84.558c3.424-3.994,4.338-4.679,5.251-4.679,1.141,0,2.054.685,6.163,4.108,1.826,1.6,2.511,2.4,2.511,3.311s-.8,1.712-3.31,3.082c-.457,6.049-.913,12.212-1.484,18.032h1.255c3.31-5.479,4.68-6.391,5.479-6.391,1.027,0,2.055.912,5.935,4.565,1.484,1.369,2.4,2.512,2.4,3.311s-.342,1.14-1.484,1.14H93.461c-.685,8.9-1.6,16.894-2.4,22.6v.342h1.141c3.539-5.477,4.908-6.391,5.707-6.391,1.027,0,2.169.914,6.163,4.451,1.713,1.6,2.626,2.625,2.626,3.424s-.343,1.141-1.484,1.141H90.607c-1.369,7.762-3.31,13.926-4.794,16.208-2.4,3.538-6.619,5.479-11.755,5.479-2.625,0-2.625-.686-3.31-3.652-.685-3.081-2.968-4.681-10.5-6.963-.57-.115-.342-1.484.229-1.484,5.82.456,9.473.685,13.239.685,3.538,0,4.452-.8,5.251-4.337.456-1.94.913-3.881,1.255-5.936H41.872c-.343,1.6-.685,3.2-1.142,5.023-.685,2.282-2.4,3.2-5.707,3.2S30,91.65,30,90.052a12.662,12.662,0,0,1,.571-2.853,280.076,280.076,0,0,0,6.848-28.42h-2.4a31.586,31.586,0,0,0-6.049.686l-1.255-4.223a32.087,32.087,0,0,0,7.532.912ZM55.8,81.72a219.6,219.6,0,0,0,4.337-22.941H47.122c-1.142,7.763-2.853,15.294-4.566,22.941Zm-4.908-46.8C49.861,42,48.72,49.078,47.578,56.154H60.59q1.369-10.614,2.4-21.229Zm29.79,46.8c1.369-7.647,2.168-15.294,2.967-22.941H69.835c-1.027,7.647-2.283,15.409-4,22.941Zm-7.99-46.8c-.8,7.077-1.484,14.153-2.4,21.229H83.874c.456-6.276.913-13.354,1.255-21.229Z" fill="#fff"/>
    <path id="パス_5" data-name="パス 5" d="M134.213,71.624A18.723,18.723,0,0,1,133.2,76.49a33,33,0,0,1-2.892,6.609,37.74,37.74,0,0,1-5.095,7.665,5.04,5.04,0,0,1-3.809,1.882,4.659,4.659,0,0,1-3.489-1.79c-1.652-1.836-2.524-4.177-2.524-8.354a14.322,14.322,0,0,1,1.974-6.976,17.726,17.726,0,0,1,6.2-6.426,20.562,20.562,0,0,1,11.107-2.983,17.567,17.567,0,0,1,11.383,3.58,14.07,14.07,0,0,1,5.37,11.658A12.472,12.472,0,0,1,147.2,90.81a20.038,20.038,0,0,1-6.793,4.085A32.663,32.663,0,0,1,131,96.639c-.688,0-1.009-.092-1.009-.459s.275-.459.872-.6c5.416-1.193,9.042-3.258,11.8-6.012,2.845-2.938,4.13-5.829,4.13-10.649,0-3.259-1.055-6.563-4.039-8.629a14.473,14.473,0,0,0-7.343-2.478,20.532,20.532,0,0,0-2.892.046,6.3,6.3,0,0,1,1.7,3.763m-11.153.184a13.975,13.975,0,0,0-3.9,5.646,11.945,11.945,0,0,0-.781,4.36,9.122,9.122,0,0,0,1.148,4.957,2.96,2.96,0,0,0,2.019,1.515c.735,0,1.423-.459,3.167-2.938A55.745,55.745,0,0,0,130.863,74.1a10.666,10.666,0,0,0,.964-3.9A2.31,2.31,0,0,0,131,68.136a15.45,15.45,0,0,0-7.94,3.672" fill="#fff"/>
    <path id="パス_6" data-name="パス 6" d="M172.545,41.5a19,19,0,0,0-.2-2.7c6.7.54,7.365,1.08,7.365,1.62,0,.472-.6.877-1.942,1.282v1.215h5.223c2.008-2.43,2.812-2.97,3.281-2.97.6,0,1.272.54,3.214,2.16.736.608,1.272,1.215,1.272,1.688s-.2.675-.871.675H174.352a23.983,23.983,0,0,1-.6,3.173h8.771c1.607-1.89,2.143-2.3,2.679-2.3.669,0,1.205.406,3.079,1.891.8.675,1.206,1.147,1.206,1.687,0,.473-.2.675-1.675,1.688a13.846,13.846,0,0,1-.937,3.51,5.643,5.643,0,0,1-2.946,3.241,9.679,9.679,0,0,1-3.348.54c-.937,0-1.205-.2-1.473-1.013-.669-1.958-1.54-2.566-4.754-3.51-.334-.068-.2-.81.135-.743a60.919,60.919,0,0,0,6.159.473c.8,0,1.138-.068,1.473-1.081.134-.607.268-1.485.469-2.834h-9.374c-2.209,5.6-6.762,9.112-14.529,11.408-.335.067-.67-.676-.4-.81,6.562-3.646,9.709-8.236,10.445-15.324h-3.214a32.115,32.115,0,0,0-4.687.4l-.736-2.5a28.192,28.192,0,0,0,5.423.54h7.031Zm5.222-4.725H185c2.076-2.228,2.88-2.768,3.348-2.768.6,0,1.406.54,3.348,1.957.87.675,1.406,1.215,1.406,1.688s-.2.675-.87.675H163.238a19.636,19.636,0,0,0-3.616.4l-.736-2.5a19.644,19.644,0,0,0,4.486.54h9.173V33.061h-5.624a31.267,31.267,0,0,0-4.62.4l-.737-2.5a27.554,27.554,0,0,0,5.357.54h5.624V30.023a35.652,35.652,0,0,0-.2-3.578c6.7.675,7.365,1.35,7.365,1.958,0,.472-.6.945-1.942,1.552v1.553h4.352c1.942-2.093,2.746-2.633,3.214-2.633.6,0,1.406.54,3.214,1.89.8.608,1.339,1.148,1.339,1.62s-.2.676-.87.676H177.767Zm4.352,47.86c-6.227,3.375-12.587,4.928-21.292,5.266-.334,0-.468-.743-.133-.878a57.989,57.989,0,0,0,13.726-6.143,15.088,15.088,0,0,0,3.682-3.24c6.428,3.105,7.1,3.578,7.1,4.253s-.269.81-3.081.742m-6.7-5.13c0,1.553-1.139,2.16-3.415,2.16-1.808,0-2.812-.607-2.812-2.16,0-2.093.335-4.253.335-12.759,0-3.78-.067-7.56-.335-11.341a36.8,36.8,0,0,1,7.164,3.376h26.582c2.142-2.43,2.678-2.835,3.214-2.835.669,0,1.272.4,3.682,2.228,1.071.877,1.473,1.35,1.473,1.89,0,.607-.134.81-1.808,2.092v2.768c0,7.155.268,12.151.268,13.771s-1.406,2.43-3.615,2.43c-1.674,0-2.545-.54-2.545-1.755v-.135H175.424Zm28.188-19.171H175.424v4.455h28.188ZM175.424,71.066h28.188V66.341H175.424Zm0,6.615h28.188V72.618H175.424Zm39.035-41.11a30.3,30.3,0,0,1-7.3,11.206,42.853,42.853,0,0,0,13.792,3.24c.335,0,.335.742,0,.81a5.073,5.073,0,0,0-4.084,4.455c-.2.81-.535,1.215-1.138,1.215a7.881,7.881,0,0,1-2.678-.877,35.445,35.445,0,0,1-9.307-6.143c-4.285,2.9-9.642,4.793-16.337,5.94-.335.068-.6-.742-.268-.877,5.892-2.3,10.311-4.861,13.726-8.033a30.074,30.074,0,0,1-4.62-7.561,31.165,31.165,0,0,1-4.821,4.118c-.267.2-.736-.2-.536-.472a45.327,45.327,0,0,0,5.022-10.6,32.25,32.25,0,0,0,1.473-6.278c6.763,1.755,7.232,1.89,7.232,2.7,0,.54-.67.946-2.143,1.283-.8,1.553-1.607,2.97-2.478,4.32h10.646c2.545-3.105,3.348-3.645,3.817-3.645.6,0,1.339.54,4.017,2.565,1.139.945,1.674,1.485,1.674,1.958s-.2.675-.87.675Zm-2.41,53.667a6.357,6.357,0,0,1-4.286-1.756c-3.548-2.97-7.231-4.793-13.792-6.885-.335-.135-.268-.675.066-.675,15.132.2,21.359,1.89,21.359,5.873a3.345,3.345,0,0,1-3.347,3.443M198.992,36.571c-.669.877-1.272,1.687-2.008,2.5a26.426,26.426,0,0,0,6.026,6.21,30.226,30.226,0,0,0,4.954-8.708Z" fill="#fff"/>
    <path id="パス_7" data-name="パス 7" d="M236.96,82.491a14.945,14.945,0,0,0-1.205,4.388c0,3.511,2.611,6.413,2.611,9.991a4.47,4.47,0,0,1-4.352,4.793c-2.143,0-3.214-1.148-3.214-3.511,0-1.754.536-4.387.536-6.615,0-4.388-.536-5.063-5.223-6.818-.335-.135-.2-1.148.134-1.08a17.981,17.981,0,0,0,2.745.4c1.473,0,2.477-.337,3.951-2.565A257.884,257.884,0,0,0,246,59.2c.134-.27,1,0,.87.338-3.013,8.1-6.629,15.458-9.909,22.951m-2.143-13.838c-1.607,0-2.209-1.013-3.481-3.983-1.005-2.362-1.942-3.645-4.62-5.94-.268-.2-.067-.54.268-.54,7.164.607,11.114,2.97,11.114,6.818,0,2.227-1.339,3.645-3.281,3.645m5.29-15.8c-1.942,0-2.41-.945-3.817-4.118a14.409,14.409,0,0,0-4.754-6.075c-.267-.2-.067-.54.268-.54,7.164.54,11.316,3.1,11.316,7.02,0,2.5-1.54,3.713-3.013,3.713m26.046,15.256a36.687,36.687,0,0,0,6.963,14.851c3.883,4.793,9.24,8.506,16.471,11.611a.354.354,0,0,1-.067.675,6.042,6.042,0,0,0-4.754,4.658c-.2.81-.535,1.147-1.071,1.147a7.136,7.136,0,0,1-2.946-1.755A42.129,42.129,0,0,1,270.17,87.014c-2.745-5-4.486-10.868-5.624-18.9h-8.437c-.268,3.51-.536,6.345-.937,8.708-1.272,9.653-6.964,19.036-15.333,25.247-.268.2-.737-.337-.536-.608a45.625,45.625,0,0,0,9.24-19.914c1.205-5.873,1.674-12.893,1.674-22.074,0-7.223-.134-11.813-.469-17.214a48.616,48.616,0,0,1,7.5,3.713h17.677c2.477-3.037,3.013-3.443,3.548-3.443.67,0,1.205.406,3.817,2.566,1.2,1.08,1.607,1.553,1.607,2.093,0,.674-.4,1.147-2.009,2.227,0,11.274.268,16,.268,19.982,0,1.957-1.206,2.7-3.817,2.7-1.874,0-2.745-.473-2.745-2.093v-1.89Zm9.44-20.589H256.578v2.092c-.067,6.819-.134,12.354-.4,16.944h19.417Z" fill="#fff"/>
    <path id="パス_8" data-name="パス 8" d="M324.406,69.415a9.67,9.67,0,0,1,3.672,1.147c2.157,1.1,2.616,2.249,2.616,3.122,0,.918-.6,1.377-1.606,1.468a12.517,12.517,0,0,0-2.571.643,51.163,51.163,0,0,0-6.793,2.891c-1.514.781-3.213,1.607-4.314,2.25-.046,1.147-.046,2.524-.046,3.488,0,2.524.092,3.3-.138,4.039a1.8,1.8,0,0,1-1.7,1.193c-1.331,0-2.019-.642-2.019-2.2,0-.826.091-1.928.137-4.406-1.1.642-1.836,1.147-2.386,1.514-2.479,1.7-3.718,3.122-3.718,5.1,0,2.157,1.927,3.259,6.242,3.259a39.377,39.377,0,0,0,6.242-.321,12.348,12.348,0,0,0,2.708-.781,5.939,5.939,0,0,1,1.882-.367,4.391,4.391,0,0,1,2.708.781,2.316,2.316,0,0,1,.964,1.7,1.779,1.779,0,0,1-.78,1.377c-.918.642-3.718,1.147-8.951,1.147-5.462,0-7.619-.321-9.868-1.377a5.328,5.328,0,0,1-3.167-5.14c0-2.02,1.01-4.039,3.167-5.967a34.687,34.687,0,0,1,5-3.58c.046-.826.046-1.515.046-2.157,0-2.433-.6-3.948-2.249-3.948-1.7,0-3.351,1.1-5.187,3.167a49.7,49.7,0,0,0-3.258,4.682,2.957,2.957,0,0,1-2.066,1.331,1.875,1.875,0,0,1-1.423-.5,1.772,1.772,0,0,1-.5-1.469,2.94,2.94,0,0,1,.734-1.882c.459-.413,1.1-1.009,1.606-1.514a44.741,44.741,0,0,0,6.7-9.088c-.873.092-2.2.229-3.3.321a5.265,5.265,0,0,1-5.508-3.718,2.724,2.724,0,0,1-.229-1.055c0-.23.091-.413.275-.413a.81.81,0,0,1,.505.413c.78,1.239,2.57,1.882,4.59,1.882a25.177,25.177,0,0,0,5.324-.735,21.542,21.542,0,0,0,1.515-3.763,5.173,5.173,0,0,0,.229-1.24,1.105,1.105,0,0,0-.413-.78,3.5,3.5,0,0,0-1.1-.643,5.943,5.943,0,0,0-.964-.321c-.229-.046-.275-.092-.275-.229,0-.23.184-.368.321-.505a2.524,2.524,0,0,1,1.7-.551,9.941,9.941,0,0,1,4.635,1.193,1.853,1.853,0,0,1,1.1,1.7,1.538,1.538,0,0,1-.643,1.147,5.369,5.369,0,0,0-1.239,1.285c-.275.367-1.01,1.423-1.377,2.02a8.274,8.274,0,0,0,3.672-1.7,2.765,2.765,0,0,1,1.652-.505c1.745,0,2.984.688,2.984,1.7a1.725,1.725,0,0,1-1.285,1.606,53.972,53.972,0,0,1-8.767,2.341c-.459.689-.964,1.377-1.606,2.433a39.584,39.584,0,0,1-2.387,3.58c2.065-1.377,3.488-1.928,5-1.928a4.29,4.29,0,0,1,3.9,1.79,7.154,7.154,0,0,1,.826,3.9c3.672-2.25,5.646-3.443,7.8-4.82.918-.6,1.652-1.01,1.652-1.377a1.256,1.256,0,0,0-.5-.918,2.854,2.854,0,0,0-1.332-.688c-.137-.046-.183-.138-.183-.367,0-.414.826-.643,1.744-.643" fill="#fff"/>
    <path id="パス_9" data-name="パス 9" d="M343.323,105.9c-.54.108-1.08-1.3-.54-1.512q26.892-11.34,42.336-31a81.084,81.084,0,0,1-6.8-12.42c-1.619-3.78-4.968-11.988-5.616-14.148-.647-1.944-.972-2.376-1.835-3.132-1.081-.864-1.189-.972-1.189-1.512,0-.864,2.808-2.376,4.428-2.376a1.161,1.161,0,0,1,1.08,1.08c0,.54-.324,1.836-.324,2.376a15.884,15.884,0,0,0,1.837,5.724,90.7,90.7,0,0,0,12.312,19.224,97.324,97.324,0,0,0,5.4-9.18,90.35,90.35,0,0,0,7.561-21.06c9.936,4.32,14.04,6.7,14.04,8.532,0,1.512-1.3,2.268-4.644,2.376-4.32,10.476-9.18,19.224-15.12,26.569,1.4,1.188,2.808,2.267,4.32,3.347,9.828,6.912,22.032,10.8,39.421,13.069.539.108.539,1.188,0,1.4-4.429,1.836-6.157,3.888-7.345,8.964-.54,2.376-.864,3.024-1.944,3.024a25.892,25.892,0,0,1-7.56-2.16c-9.612-3.888-18.36-8.748-25.92-15.661a64.961,64.961,0,0,1-6.048-6.155c-11.665,11.772-26.893,19.44-47.845,24.624m36.4-85.862a82.158,82.158,0,0,1-34.561,30.241c-.54.216-1.3-.756-.864-1.08,7.452-6.48,14.472-15.876,19.98-25.056a70.731,70.731,0,0,0,6.372-13.933c10.368,3.888,14.041,5.832,14.041,7.344s-1.08,2.053-4.968,2.484m48.708,26.785c-3.024,0-3.456-.432-7.56-7.452a101.207,101.207,0,0,0-22.9-26.245c-.432-.324.108-1.3.648-1.08,23.22,9.4,34.884,19.009,34.884,28.729,0,3.456-2.16,6.048-5.076,6.048" fill="#fff"/>
    <path id="パス_10" data-name="パス 10" d="M457.927,88.608a10.211,10.211,0,0,0-.276,2.57c0,.964.276,2.157.276,2.616.046,1.285-.276,2.066-1.285,2.066-1.331,0-1.744-.459-2.984-2.846-.918-1.79-1.514-5.232-1.514-8.583a55.585,55.585,0,0,1,1.973-12.9,27.871,27.871,0,0,0,.918-4.681,6.118,6.118,0,0,0-1.193-3.626.7.7,0,0,1-.184-.459c0-.138.23-.367.643-.367a4.425,4.425,0,0,1,2.2,1.147,10.181,10.181,0,0,1,2.111,2.754,4.975,4.975,0,0,1,.781,2.524,2.406,2.406,0,0,1-.643,1.653A9.708,9.708,0,0,0,457.33,73a28.082,28.082,0,0,0-2.341,9.822c0,2.754.138,3.994.5,4.636a.191.191,0,0,0,.367,0c1.423-2.708,2.846-5.783,4.131-8.445.184-.413.413-.551.643-.551s.459.276.229.964c-1.193,3.626-2.432,7.16-2.937,9.18m7.3-5.416a7.3,7.3,0,0,0,.551,2.937c.78,1.836,2.937,3.4,7.848,3.4a27.606,27.606,0,0,0,5.967-.413,5.191,5.191,0,0,1,1.882-.5,7.412,7.412,0,0,1,2.662.734,1.929,1.929,0,0,1,1.24,1.744,1.886,1.886,0,0,1-1.424,1.79c-1.009.367-3.258.781-7.711.781-7.8,0-12.346-3.213-12.346-8.859a10.531,10.531,0,0,1,1.147-5c.23-.413.321-.5.505-.5s.275.184.275.459a15.91,15.91,0,0,0-.6,3.443m1.239-12.347a3.776,3.776,0,0,1-.964.367c-.367,0-.413-.138-.413-.413q0-.275.551-.688a21.933,21.933,0,0,1,5.737-3.03,17.109,17.109,0,0,1,5.921-.964c4.177,0,5.462,1.469,5.462,2.708,0,1.286-.826,1.7-2.8,1.7-.6,0-1.56-.138-2.157-.138a11.556,11.556,0,0,0-2.708.321c-1.331.367-2.479.872-5.37,3.259a.887.887,0,0,1-.6.275.29.29,0,0,1-.321-.321c0-.137.046-.275.321-.6.734-.918,1.744-1.928,3.167-3.581a13.929,13.929,0,0,0-5.829,1.1" fill="#fff"/>
    <path id="パス_11" data-name="パス 11" d="M511.257,80.972c2.252,3.828,3.753,5.179,7.131,6.305C522.066,88.4,527.694,89,535.426,89a235.451,235.451,0,0,0,28.822-1.876c.375-.075.375.675.075.825a4.736,4.736,0,0,0-2.927,4.2c-.225,2.328-.375,2.553-1.8,2.7-3.979.525-12.91.675-18.315.675-10.433,0-17.413-.675-22.216-2.7-5.18-2.252-7.957-6.005-9.909-12.234a54.407,54.407,0,0,1-8.631,11.259c.225,2.852-.15,3.452-1.276,3.452s-2.777-2.7-5.555-9.157a32.557,32.557,0,0,0,5.63-2.1,34.078,34.078,0,0,0,4.953-2.777V61.232H499.1a14.8,14.8,0,0,0-4.128.6l-.826-3a18.119,18.119,0,0,0,4.954.675h4.728c2.627-3,3.228-3.452,3.828-3.452.751,0,1.351.45,4.128,2.627,1.277,1.051,1.727,1.576,1.727,2.177,0,.525-.226.75-2.252,2.4Zm-4.429-36.328c-1.725,0-2.627-.9-3.678-4.654a21.963,21.963,0,0,0-4.8-8.781c-.3-.3.225-.751.6-.676,8.783,2.177,12.01,5.78,12.01,9.607,0,2.552-1.5,4.5-4.129,4.5m33.552,1.351a98.227,98.227,0,0,1-.9,12.384h11.484c3.3-4.127,4.2-4.728,4.729-4.728.675,0,1.5.6,4.878,3.3,1.5,1.2,2.1,1.877,2.1,2.4s-.226.751-.976.751H539.179a26.721,26.721,0,0,1-1.426,5.329c14.336,4.879,20.49,9.157,20.49,14.561,0,2.7-1.726,4.579-3.9,4.579-1.576,0-1.8-.3-4.878-4.879a51.42,51.42,0,0,0-12.234-12.76C533.7,75.868,527.02,80.972,515.836,84.2c-.376.076-.751-.6-.451-.825,9.683-5.855,14.862-11.934,16.889-23.268H520.339a24.433,24.433,0,0,0-4.278.45l-.826-2.777a22.691,22.691,0,0,0,5.1.6h12.234a97.711,97.711,0,0,0,.676-12.384H522.591a24.423,24.423,0,0,0-4.278.45l-.826-2.777a22.756,22.756,0,0,0,5.1.6H539.1a54.162,54.162,0,0,0,3.6-9.158,56.526,56.526,0,0,0,1.8-7.5c7.506,2.7,9.082,3.452,9.082,4.5,0,.826-.751,1.126-2.928,1.276a63.7,63.7,0,0,1-9.007,10.884h8.182c3-3.6,3.9-4.2,4.429-4.2.675,0,1.5.6,4.5,3,1.276.977,1.877,1.652,1.877,2.177s-.226.751-.977.751Zm-10.208-3.678c-1.727,0-1.952-.45-3.3-5.029a18.233,18.233,0,0,0-4.353-7.43c-.3-.3.15-.9.525-.826,7.056,1.952,11.033,5.029,11.033,8.706,0,2.628-1.65,4.579-3.9,4.579" fill="#fff"/>
    <path id="パス_12" data-name="パス 12" d="M581.456,75.2c4.085-3.4,7.436-5,12.163-5a13.48,13.48,0,0,1,6.242,1.423,9.947,9.947,0,0,1,3.718,3.121A8.251,8.251,0,0,1,605,80.02c0,3.443-1.974,6.839-6.655,9.364-4.085,2.2-10.373,3.3-15.1,3.4-1.01,0-1.561.046-1.744,0-.321-.092-.505-.229-.505-.551,0-.413.321-.459,1.01-.55a40,40,0,0,0,10.419-2.8c4.222-1.836,7.8-5.141,7.8-9.868,0-2.479-.734-4.177-2.478-5.325a9.385,9.385,0,0,0-5.829-1.468,15.565,15.565,0,0,0-9.18,3.534,19.28,19.28,0,0,0-5.783,6.517c-.6,1.056-1.1,1.7-2.065,1.7-1.423,0-2.02-1.7-2.02-2.8a3.729,3.729,0,0,1,1.515-2.938c1.377-1.239,3.121-2.983,4.406-4.314,5.324-5.646,8.445-9.226,12.117-13.632.734-.918.872-1.1.872-1.469,0-.321-.505-.321-1.147-.137-.735.229-1.974.734-4.774,1.927a13.853,13.853,0,0,0-3.121,1.7,2.015,2.015,0,0,1-1.514.55,3.525,3.525,0,0,1-2.341-1.606,7.116,7.116,0,0,1-1.377-3.488,3.147,3.147,0,0,1,.275-1.331c.138-.276.321-.505.505-.505.275,0,.459.275.734.78.918,1.56,1.653,1.882,2.479,1.882,1.606,0,4.085-.735,7.619-1.882a2.251,2.251,0,0,0,1.148-.78,1.938,1.938,0,0,1,1.514-.643,8.883,8.883,0,0,1,3.259,1.1c1.652.872,2.295,1.881,2.295,2.57a1.438,1.438,0,0,1-.918,1.377,4.826,4.826,0,0,0-1.193.78c-2.708,2.525-5.1,5.1-7.666,7.757-2.34,2.479-3.671,3.764-6.242,6.242Z" fill="#fff"/>
    <path id="パス_13" data-name="パス 13" d="M648.414,59.9a11.192,11.192,0,0,1,8.783,4.292c1.916,2.246,3.1,5.482,3.1,10.765A24.167,24.167,0,0,1,655.877,87.9a26.512,26.512,0,0,1-7.265,7,32.058,32.058,0,0,1-8.057,3.9,24.313,24.313,0,0,1-3.434.859c-.594.066-.924-.132-.924-.462,0-.4.462-.6,1.122-.925a30.227,30.227,0,0,0,11.228-8.849c3.433-4.293,5.018-9.444,5.018-15.718,0-3.1-.33-6.406-1.453-8.057a5.167,5.167,0,0,0-4.755-2.774c-3.1,0-7.4,3.17-10.566,7.067-.924,1.122-1.321,1.585-2.444,1.585s-2.773-.991-4.093-2.576a6.213,6.213,0,0,1,.33-8.321,1,1,0,0,1,.66-.4c.462,0,.528.33.462.859a9.938,9.938,0,0,0,0,1.981,1.315,1.315,0,0,0,1.519,1.189c.792,0,1.915-.265,4.425-1.388,5.085-2.245,7.924-2.971,10.764-2.971m-12.68-16.18a3.466,3.466,0,0,1-.132-.727c0-.462.067-.726.265-.726.263,0,.462.132.858.528,2.707,2.972,7.132,3.963,10.962,3.963,1.982,0,4.029-.066,5.614.858,1.651.925,2.839,2.113,2.839,3.765,0,1.255-1.056,2.047-3.367,2.047a27.524,27.524,0,0,0-4.1-.132,23.737,23.737,0,0,0-4.293.726,38.27,38.27,0,0,0-4.886,1.519A4.022,4.022,0,0,1,637.98,56c-.33,0-.528-.132-.528-.462s.395-.529,1.056-.99c1.453-.925,3.764-2.246,5.085-3.3-2.971-.726-6.141-3.1-7.859-7.528" fill="#fff"/>
    <line id="線_1" data-name="線 1" x2="698" transform="translate(-32.53 96.052)" fill="#fff"/>
    <path id="パス_14" data-name="パス 14" d="M640.585,96.974C635.416,94.856,627.784,92,622.662,92c-2.8,0-5.353.791-5.353,2.616,0,3.649,7.907,5.535,14.112,5.535a37.667,37.667,0,0,0,7.56-.769c12.072,6.82,25.52,15.672,37.573,15.672,9.672,0,14.538-6.022,17.64-13.686l-.243-.123c-1.886,1.886-6.387,3.042-12.592,3.042a134.392,134.392,0,0,1-37.731-6.174M631.48,99.417v0c-4.684,0-11.679-1.338-11.679-4.562,0-1.217,1.095-2.251,2.981-2.251,3.832,0,7.725,2.068,13.869,5.475l.7.384a18.028,18.028,0,0,1-5.869.952" fill="#fff"/>
  </g>
</svg>
