<svg xmlns="http://www.w3.org/2000/svg" xmlns:xlink="http://www.w3.org/1999/xlink" width="764.84" height="126.714" viewBox="0 0 764.84 126.714">
  <defs>
    <clipPath id="clip-path">
      <rect id="長方形_38" data-name="長方形 38" width="764.84" height="126.714" transform="translate(0 0)" fill="#076e95"/>
    </clipPath>
  </defs>
  <g id="海に合うビールって" transform="translate(7 -117)">
    <g id="グループ_7" data-name="グループ 7" transform="translate(-7 117)" clip-path="url(#clip-path)">
      <path id="パス_27" data-name="パス 27" d="M16.757,58.1c-3.273,0-4.5-2.046-7.093-8.047-2.046-4.774-3.955-7.366-9.411-12-.546-.409-.137-1.09.546-1.09,14.594,1.227,22.642,6,22.642,13.776,0,4.5-2.728,7.365-6.684,7.365m4.911,27.28a36.3,36.3,0,0,0-1.637,8.866c0,7.092,5.046,12.958,5.046,20.187,0,5.729-3.546,9.821-8.32,9.821-4.365,0-6.547-2.456-6.547-7.23,0-4.5,1.091-8.865,1.091-13.366C11.3,94.8,10.21,93.432.662,89.886-.02,89.613.253,87.7.935,87.841a54.043,54.043,0,0,0,5.592.681c2.592,0,3.956,0,7.23-6.274,3.409-6.275,8.865-19.233,19.777-45.148.273-.682,1.91-.136,1.773.545-4.5,15.959-9.138,31.781-13.639,47.74M27.4,25.916c-3.955,0-4.91-1.91-7.775-8.321-2.455-5.32-4.364-7.911-9.684-12.276-.545-.409-.136-1.091.546-1.091C25.077,5.319,33.534,10.5,33.534,18.414c0,5.047-3.137,7.5-6.138,7.5M45.4,67.108C47.31,56.6,48.675,46.1,49.765,35.464A74.743,74.743,0,0,1,36.535,47.33c-.545.409-1.637-.682-1.228-1.228,5.729-7.911,11.185-18.823,14.868-29.189A89.864,89.864,0,0,0,54.676,0C69,4.637,71.726,5.865,71.726,7.5s-1.774,2.727-5.592,3.136a79.208,79.208,0,0,1-4.911,9.548h42.42c6.547-8.32,8.184-9.411,9.139-9.411,1.227,0,2.728,1.091,9.411,6.547,3,2.455,4.092,3.683,4.092,4.638s-.409,1.364-1.773,1.364H59.177q-3.478,5.115-7.365,9.82A109.565,109.565,0,0,1,62.041,38.6h39.011c4.091-4.773,5.183-5.591,6.273-5.591,1.365,0,2.456.818,7.366,4.91,2.183,1.909,3,2.864,3,3.955s-.955,2.046-3.955,3.682c-.546,7.23-1.092,14.6-1.774,21.552h1.5c3.955-6.548,5.592-7.639,6.547-7.639,1.228,0,2.455,1.091,7.092,5.456,1.774,1.637,2.865,3,2.865,3.956s-.409,1.364-1.773,1.364H111.69c-.818,10.639-1.909,20.186-2.864,27.007v.409h1.364c4.228-6.547,5.865-7.639,6.82-7.639,1.228,0,2.591,1.092,7.365,5.32,2.047,1.91,3.137,3.137,3.137,4.092s-.409,1.364-1.772,1.364H108.281c-1.637,9.275-3.956,16.64-5.729,19.369-2.865,4.228-7.911,6.547-14.049,6.547-3.137,0-3.137-.819-3.956-4.365-.818-3.683-3.546-5.592-12.549-8.32-.681-.137-.409-1.773.273-1.773,6.957.545,11.322.818,15.823.818,4.228,0,5.319-.955,6.274-5.184.545-2.318,1.091-4.636,1.5-7.092H50.038c-.409,1.91-.818,3.819-1.363,6-.819,2.727-2.865,3.819-6.821,3.819s-6-1.092-6-3a15.1,15.1,0,0,1,.682-3.41,334.945,334.945,0,0,0,8.184-33.963H41.854a37.748,37.748,0,0,0-7.229.818l-1.5-5.047a38.278,38.278,0,0,0,9,1.092ZM66.679,97.661a262.286,262.286,0,0,0,5.183-27.416H56.313c-1.364,9.275-3.41,18.277-5.456,27.416ZM60.814,41.738c-1.228,8.456-2.592,16.913-3.956,25.37h15.55q1.637-12.686,2.864-25.37Zm35.6,55.923C98.051,88.522,99,79.384,99.96,70.245h-16.5c-1.228,9.139-2.728,18.414-4.774,27.416ZM86.866,41.738c-.955,8.456-1.773,16.913-2.864,25.37h16.231c.546-7.5,1.091-15.959,1.5-25.37Z" fill="#076e95"/>
      <path id="パス_28" data-name="パス 28" d="M148.489,116.931a12.578,12.578,0,0,0-.337,3.154c0,1.183.337,2.647.337,3.21.057,1.577-.337,2.534-1.577,2.534-1.633,0-2.14-.562-3.66-3.491-1.127-2.2-1.859-6.421-1.859-10.532,0-4.787.957-9.743,2.422-15.826a34.258,34.258,0,0,0,1.126-5.744,7.512,7.512,0,0,0-1.464-4.45.859.859,0,0,1-.225-.563c0-.169.281-.45.788-.45a5.429,5.429,0,0,1,2.7,1.407,12.49,12.49,0,0,1,2.591,3.38,6.1,6.1,0,0,1,.958,3.1,2.952,2.952,0,0,1-.789,2.028,11.93,11.93,0,0,0-1.746,3.1c-1.239,2.873-2.872,7.941-2.872,12.053,0,3.379.169,4.9.619,5.688a.235.235,0,0,0,.451,0c1.746-3.323,3.491-7.1,5.069-10.363.225-.506.506-.675.788-.675s.563.338.282,1.182c-1.464,4.449-2.985,8.786-3.6,11.264m8.955-6.646a8.974,8.974,0,0,0,.676,3.6c.957,2.253,3.6,4.168,9.631,4.168a33.808,33.808,0,0,0,7.321-.507,6.377,6.377,0,0,1,2.31-.62,9.086,9.086,0,0,1,3.266.9,2.367,2.367,0,0,1,1.521,2.14,2.313,2.313,0,0,1-1.746,2.2c-1.239.45-4,.957-9.462.957-9.575,0-15.15-3.942-15.15-10.87a12.919,12.919,0,0,1,1.408-6.139c.282-.506.394-.619.62-.619s.337.225.337.564a19.464,19.464,0,0,0-.732,4.223m1.521-15.15a4.648,4.648,0,0,1-1.183.451c-.45,0-.507-.169-.507-.508q0-.336.676-.844a26.91,26.91,0,0,1,7.04-3.717,21,21,0,0,1,7.266-1.183c5.125,0,6.7,1.8,6.7,3.323,0,1.577-1.015,2.083-3.436,2.083-.732,0-1.915-.168-2.647-.168a14.108,14.108,0,0,0-3.323.394c-1.633.451-3.041,1.07-6.589,4a1.089,1.089,0,0,1-.733.338.356.356,0,0,1-.394-.4c0-.169.056-.337.394-.732.9-1.126,2.14-2.365,3.886-4.393a17.072,17.072,0,0,0-7.152,1.352" fill="#076e95"/>
      <path id="パス_29" data-name="パス 29" d="M188.682,80.13c-.409.163-.9-.574-.573-.819a86.768,86.768,0,0,0,26.745-26.99,63.868,63.868,0,0,0,5.97-12.758c11.532,3.108,11.614,3.19,11.614,4.171,0,.817-.654,1.145-3.68,1.963a60.515,60.515,0,0,0,17.666,17.175,56.852,56.852,0,0,0,20.528,7.361c.409.082.409.982,0,.982-3.271.327-4.907,1.962-6.216,6.706-.408,1.145-.736,1.554-1.39,1.554a9.02,9.02,0,0,1-3.026-1.227,69.385,69.385,0,0,1-12.186-8.587c-6.788-6.135-11.287-12.187-16.358-22.328-8.26,14.884-22.246,26.58-39.094,32.8m21.1,28.052v2.863c0,2.208-1.472,3.189-4.989,3.189-2.29,0-3.272-.817-3.272-2.862,0-3.027.246-6.053.246-18.156q0-7.118-.246-14.232c4.417,2.126,5.072,2.454,9.079,4.662h31c3.107-3.68,3.761-4.171,4.416-4.171.818,0,1.472.491,4.989,3.435,1.636,1.39,2.126,1.963,2.126,2.617,0,.981-.49,1.472-2.7,2.7v3.762c0,9.9.245,16.767.245,18.975,0,2.045-1.8,3.271-5.071,3.271-2.372,0-3.353-.9-3.353-2.862v-3.19Zm32.47-22.655h-32.47V106.3h32.47ZM229.33,69.987c3.436-4.416,4.417-5.07,4.989-5.07.737,0,1.636.654,5.235,3.516,1.635,1.309,2.29,2.045,2.29,2.617s-.245.819-1.064.819H216.244a27.444,27.444,0,0,0-4.743.49l-.9-3.026a26.762,26.762,0,0,0,5.807.654Z" fill="#076e95"/>
      <path id="パス_30" data-name="パス 30" d="M300.115,83.054a9.549,9.549,0,0,1,7.491,3.661c1.633,1.915,2.647,4.675,2.647,9.18a20.606,20.606,0,0,1-3.773,11.039,22.586,22.586,0,0,1-6.2,5.969,27.332,27.332,0,0,1-6.87,3.324,20.852,20.852,0,0,1-2.929.732c-.507.056-.788-.113-.788-.394,0-.338.394-.507.957-.788a25.789,25.789,0,0,0,9.574-7.547c2.929-3.661,4.281-8.055,4.281-13.405,0-2.647-.282-5.464-1.239-6.871a4.408,4.408,0,0,0-4.055-2.366c-2.647,0-6.309,2.7-9.012,6.026-.788.958-1.126,1.352-2.084,1.352a5.512,5.512,0,0,1-3.21-9.292.859.859,0,0,1,.563-.338c.394,0,.451.281.394.732a8.511,8.511,0,0,0,0,1.689,1.122,1.122,0,0,0,1.3,1.015,9.949,9.949,0,0,0,3.773-1.184c4.337-1.914,6.759-2.534,9.18-2.534M289.3,69.256a2.932,2.932,0,0,1-.112-.62c0-.4.056-.619.225-.619.225,0,.394.112.732.45,2.309,2.534,6.083,3.379,9.349,3.379,1.69,0,3.436-.056,4.787.732,1.408.789,2.422,1.8,2.422,3.211,0,1.07-.9,1.745-2.872,1.745a23.587,23.587,0,0,0-3.492-.112,20.286,20.286,0,0,0-3.661.619,32.664,32.664,0,0,0-4.168,1.3,3.44,3.44,0,0,1-1.295.4c-.282,0-.451-.114-.451-.4s.338-.451.9-.845c1.238-.789,3.21-1.915,4.336-2.816a9.97,9.97,0,0,1-6.7-6.42" fill="#076e95"/>
      <path id="パス_31" data-name="パス 31" d="M355.865,93.624a35.047,35.047,0,0,0,.288,6.624,3.934,3.934,0,0,0,2.4,2.687c1.44.768,3.936,1.344,7.871,1.344a79.683,79.683,0,0,0,19.295-2.111,18.148,18.148,0,0,1,4.992-.865c3.839,0,6.624,1.825,6.624,4.608,0,2.5-1.153,3.168-2.977,3.935-1.727.672-4.415,1.153-8.735,1.441-5.375.384-10.463.672-15.071.672-10.559,0-16.8-1.632-19.294-4.9a12.142,12.142,0,0,1-2.3-4.416,32.177,32.177,0,0,1-.576-7.775c.1-5.856.1-11.9.1-17.855,0-5.279.1-10.559.1-15.455,0-3.647-.288-4.416-2.784-5.76a16.561,16.561,0,0,0-2.5-.959c-.672-.192-.96-.48-.96-.864,0-1.248,3.168-2.5,5.184-2.5,1.44,0,3.936.672,7.487,2.688,3.36,1.92,4.416,3.36,4.416,5.088a4.024,4.024,0,0,1-1.44,3.263c-.768.768-1.056,1.344-1.248,4.512-.288,3.84-.576,8.447-.672,13.631a102.506,102.506,0,0,0,14.207-5.76,106.657,106.657,0,0,0,11.615-6.623c.96-.672,1.537-1.056,1.537-1.728,0-.768-.865-1.728-1.633-2.5-.959-.96-1.439-1.343-1.439-1.728,0-.48.959-.863,2.015-.863,2.976,0,4.416.576,8.352,4.127,2.592,2.4,3.936,4.415,3.839,6.047,0,1.92-1.055,2.592-3.359,3.073a24.715,24.715,0,0,0-3.456,1.055c-5.184,1.824-10.079,3.264-14.879,4.512a159.946,159.946,0,0,1-16.895,3.456c0,2.783-.1,6.719-.1,9.887M395.99,51.291c2.592,2.016,3.552,3.744,3.552,5.76a3.224,3.224,0,0,1-3.167,3.36c-1.057,0-2.208-.288-3.264-2.208a35.881,35.881,0,0,0-6.048-8.447c-.384-.385-1.056-.865-1.056-1.248,0-.577.48-.672,1.152-.672a8.458,8.458,0,0,1,2.208.383,17.6,17.6,0,0,1,6.623,3.072m8.928-6.719c2.016,1.151,3.456,2.783,3.456,4.9s-1.344,3.551-2.976,3.551a3.672,3.672,0,0,1-3.552-2.112,24.358,24.358,0,0,0-6.72-7.487c-.383-.288-1.151-.768-1.151-1.153a.756.756,0,0,1,.768-.767,13.167,13.167,0,0,1,2.495.288,22.4,22.4,0,0,1,7.68,2.784" fill="#e8c26b"/>
      <path id="パス_32" data-name="パス 32" d="M488.1,84.223c-2.478,0-7.911-.4-11.827-.4-6.313,0-20.058.32-29.887,1.2-3.835.319-6.792.8-7.911,1.517a3.454,3.454,0,0,1-2.157.64c-2.077,0-3.916-1.918-6.393-5.514a6.483,6.483,0,0,1-1.518-4.315c0-1.278.479-1.918.959-1.918.24,0,.639.32,1.039.72,2.956,2.877,4.394,3.036,6.712,3.036,2.158,0,3.675-.08,8.39-.4,9.909-.639,20.457-1.119,28.288-1.278a15.243,15.243,0,0,0,6.234-1.119,5.337,5.337,0,0,1,2.237-.639,9.217,9.217,0,0,1,3.6.8c3.036,1.278,5.114,2.478,5.114,4.475a3.034,3.034,0,0,1-2.877,3.2" fill="#e8c26b"/>
      <path id="パス_33" data-name="パス 33" d="M521.961,67.777c-.768-.289-1.248-.384-1.248-.865,0-.576,1.824-2.015,3.744-2.015,2.5,0,6.719,1.536,10.175,3.743,2.4,1.536,2.88,2.88,2.88,4.128a2.88,2.88,0,0,1-1.344,2.5c-.672.576-1.055,1.439-1.632,3.264-2.016,6.047-4.223,12.287-7.872,17.854-4.7,7.2-11.039,13.728-19.39,17.855a5.781,5.781,0,0,1-1.92.768c-.575,0-.863-.288-.863-.96,0-.576.191-.672.96-1.344a58.648,58.648,0,0,0,13.535-16.8,75.654,75.654,0,0,0,6.623-16.7,26.407,26.407,0,0,0,1.152-6.815c0-2.016-2.208-3.552-4.8-4.607m21.887-6.144c-.48-1.248-2.017-2.5-4.416-3.456-.768-.288-1.152-.384-1.152-1.056s1.728-2.112,4.032-2.112,5.279,1.152,8.735,3.36c1.728,1.056,3.84,2.688,3.84,4.9a3.5,3.5,0,0,1-1.344,2.687,3.523,3.523,0,0,0-.768,2.3c-.192,6.432-.288,12.287-.48,21.694v7.1c0,.864.1,1.248.48,1.248a6.567,6.567,0,0,0,2.3-.768c10.56-4.511,19.967-9.119,31.678-18.623,1.153-.96,1.729-1.536,2.4-1.536.575,0,.96.288.96.864a2.8,2.8,0,0,1-.769,1.344c-6.432,8.832-17.278,17.951-33.886,27.742a4.785,4.785,0,0,0-1.919,2.016,2.549,2.549,0,0,1-2.208,1.344c-1.152,0-3.168-1.152-4.8-3.072a10.36,10.36,0,0,1-2.688-5.759,6.51,6.51,0,0,1,.287-1.632,28.247,28.247,0,0,0,.481-5.856c0-7.679,0-14.207-.1-26.4a19.877,19.877,0,0,0-.672-6.335" fill="#e8c26b"/>
      <path id="パス_34" data-name="パス 34" d="M620.7,87.135a12.541,12.541,0,0,1,8.5,2.7c2.816,2.2,4,4.844,4,8.73a11.471,11.471,0,0,1-5.576,9.574,24.469,24.469,0,0,1-7.941,3.266,55.876,55.876,0,0,1-10.589,1.3c-.675,0-1.013-.225-1.013-.563,0-.226.225-.451.958-.564a38.341,38.341,0,0,0,11.6-3.661c4.731-2.59,8-6.645,8-10.757a7.076,7.076,0,0,0-2.2-5.575,7.9,7.9,0,0,0-6.139-2.253c-3.547,0-7.6,2.366-12.615,6.251a12.44,12.44,0,0,0-3.211,3.042,2.286,2.286,0,0,1-2.084,1.07c-1.295,0-3.21-1.295-4.449-2.816a4.293,4.293,0,0,1-1.238-2.647c0-.845.169-1.409.619-1.409.169,0,.338.114.676.4.957.845,1.577,1.352,2.478,1.352a3.389,3.389,0,0,0,1.295-.338c.4-.169,1.126-.45,2.365-1.071q5.408-2.7,7.266-3.547c3.379-1.464,6.589-2.478,9.293-2.478" fill="#076e95"/>
      <path id="パス_35" data-name="パス 35" d="M678.732,63.808a170.33,170.33,0,0,0-21.891,7,11.633,11.633,0,0,0-2.859,1.731,3.063,3.063,0,0,1-2.182.827c-1.5.075-3.234-.9-5.716-3.686-1.2-1.43-2.784-3.31-2.784-5.416,0-1.2.3-2.332.752-2.332.3,0,.527-.075,1.2.752,2.633,2.708,3.235,3.009,5.492,2.934a98.984,98.984,0,0,0,12.562-2.483c9.629-2.257,17.151-4.288,22.869-5.942a22.8,22.8,0,0,0,4.137-1.43,5.377,5.377,0,0,1,2.859-.677,18.333,18.333,0,0,1,6.921,1.2c1.279.6,2.407,1.354,2.407,2.933,0,1.5-.677,2.634-2.784,2.709-1.579.151-3.234,0-7.447.376-7,.6-12.487,2.934-17.227,8.124a20.668,20.668,0,0,0-5.416,14.594,13.329,13.329,0,0,0,5.492,11.209,23.568,23.568,0,0,0,12.036,3.912c2.407.15,4.288.226,5.793,1.053,1.8.9,2.933,2.106,2.933,3.837,0,2.03-1.354,3.61-4.889,3.61a36.194,36.194,0,0,1-14.594-3.535c-5.115-2.407-11.059-8.652-11.059-17.3a27.022,27.022,0,0,1,2.934-12.638c1.881-3.685,6.019-7.823,10.457-10.982Z" fill="#076e95"/>
      <path id="パス_36" data-name="パス 36" d="M727.83,90.647a6.672,6.672,0,1,1-3.972-8.559,6.765,6.765,0,0,1,3.972,8.559m35.921-45.666c-3.785,10.574-14.337,12.71-22.229,15.391C734,62.878,731.173,65.64,729.095,73.155c-.356.994-1.428,1.426-3.145.811-.9-.323-1.078-.691-.755-1.6,2.977-8.315,5.349-12.665,11.939-16.832,6.156-3.812,13.6-6.655,16.411-14.517,2.717-7.592,1.818-15.051-5.954-17.833-4.248-1.52-8.336-.639-10.907,1.7-1.551,1.484-2.941,3.943-4.2,7.468-.97,2.712-4.994,3.412-8.7,2.086-2.26-.809-3.447-2.049-2.38-5.031,2.233-6.237,14.513-13.77,27.618-9.08,13.556,4.853,18.16,15.065,14.731,24.645" fill="#076e95"/>
    </g>
  </g>
</svg>
