<svg xmlns="http://www.w3.org/2000/svg" width="126.02" height="105.79" viewBox="0 0 126.02 105.79">
  <g id="届いた" transform="translate(-44.883 -32.359) rotate(22)">
    <text id="届" transform="matrix(0.845, -0.534, 0.534, 0.845, 64.04, 30.594)" font-size="15" font-family="NotoSansJP-Regular, Noto Sans JP"><tspan x="0" y="0">届</tspan></text>
    <text id="い" transform="translate(77.431 22.122) rotate(-22.608)" font-size="15" font-family="NotoSansJP-Regular, Noto Sans JP"><tspan x="0" y="0">い</tspan></text>
    <text id="た" transform="translate(91.987 16.016) rotate(-12.892)" font-size="15" font-family="NotoSansJP-Regular, Noto Sans JP"><tspan x="0" y="0">た</tspan></text>
    <text id="そ" transform="translate(107.392 12.474) rotate(-3.253)" font-size="15" font-family="NotoSansJP-Regular, Noto Sans JP"><tspan x="0" y="0">そ</tspan></text>
    <text id="の" transform="translate(123.183 11.561) rotate(6.273)" font-size="15" font-family="NotoSansJP-Regular, Noto Sans JP"><tspan x="0" y="0">の</tspan></text>
    <text id="日" transform="translate(138.919 13.284) rotate(15.966)" font-size="15" font-family="NotoSansJP-Regular, Noto Sans JP"><tspan x="0" y="0">日</tspan></text>
    <text id="に" transform="translate(154.122 17.633) rotate(25.672)" font-size="15" font-family="NotoSansJP-Regular, Noto Sans JP"><tspan x="0" y="0">に</tspan></text>
    <text id="お" transform="matrix(0.999, 0.035, -0.035, 0.999, 115.121, 31.332)" fill="#f5a629" font-size="15" font-family="NotoSansJP-Regular, Noto Sans JP"><tspan x="0" y="0">お</tspan></text>
    <text id="う" transform="matrix(0.978, 0.208, -0.208, 0.978, 130.57, 31.001)" fill="#f5a629" font-size="15" font-family="NotoSansJP-Regular, Noto Sans JP"><tspan x="0" y="0">う</tspan></text>
    <text id="ち" transform="matrix(0.927, 0.375, -0.375, 0.927, 145.879, 33.887)" fill="#f5a629" font-size="15" font-family="NotoSansJP-Regular, Noto Sans JP"><tspan x="0" y="0">ち</tspan></text>
    <text id="飲" transform="matrix(0.857, 0.515, -0.515, 0.857, 160.307, 39.446)" fill="#f5a629" font-size="15" font-family="NotoSansJP-Regular, Noto Sans JP"><tspan x="0" y="0">飲</tspan></text>
    <text id="み" transform="translate(173.379 46.893) rotate(41)" fill="#f5a629" font-size="15" font-family="NotoSansJP-Regular, Noto Sans JP"><tspan x="0" y="0">み</tspan></text>
    <text id="_" data-name="！" transform="matrix(0.629, 0.777, -0.777, 0.629, 185.258, 57.416)" font-size="15" font-family="NotoSansJP-Regular, Noto Sans JP"><tspan x="0" y="0">！</tspan></text>
  </g>
</svg>
