<svg xmlns="http://www.w3.org/2000/svg" width="176.842" height="84.958" viewBox="0 0 176.842 84.958">
  <g id="グループ_25" data-name="グループ 25" transform="matrix(0.883, -0.469, 0.469, 0.883, -1508.643, -2591.143)">
    <g id="常温" transform="translate(39.421 3014.864) rotate(10)">
      <text id="常" transform="matrix(0.845, -0.534, 0.534, 0.845, 66.176, 37.728)" fill="#f5a629" font-size="18" font-family="NotoSansJP-Regular, Noto Sans JP"><tspan x="0" y="0">常</tspan></text>
      <text id="温" transform="translate(81.701 27.876) rotate(-22.608)" fill="#f5a629" font-size="18" font-family="NotoSansJP-Regular, Noto Sans JP"><tspan x="0" y="0">温</tspan></text>
      <text id="で" transform="translate(98.67 20.77) rotate(-12.892)" fill="#f5a629" font-size="18" font-family="NotoSansJP-Regular, Noto Sans JP"><tspan x="0" y="0">で</tspan></text>
      <text id="美" transform="matrix(0.998, -0.057, 0.057, 0.998, 116.587, 16.636)" fill="#f5a629" font-size="18" font-family="NotoSansJP-Regular, Noto Sans JP"><tspan x="0" y="0">美</tspan></text>
      <text id="味" transform="translate(134.959 15.553) rotate(6.273)" fill="#f5a629" font-size="18" font-family="NotoSansJP-Regular, Noto Sans JP"><tspan x="0" y="0">味</tspan></text>
      <text id="し" transform="translate(153.265 17.527) rotate(15.966)" fill="#f5a629" font-size="18" font-family="NotoSansJP-Regular, Noto Sans JP"><tspan x="0" y="0">し</tspan></text>
      <text id="い" transform="translate(170.955 22.551) rotate(25.672)" fill="#f5a629" font-size="18" font-family="NotoSansJP-Regular, Noto Sans JP"><tspan x="0" y="0">い</tspan></text>
      <text id="の" transform="matrix(0.816, 0.578, -0.578, 0.816, 187.546, 30.487)" font-size="18" font-family="NotoSansJP-Regular, Noto Sans JP"><tspan x="0" y="0">の</tspan></text>
      <text id="で-2" data-name="で" transform="matrix(0.708, 0.706, -0.706, 0.708, 202.572, 41.091)" font-size="18" font-family="NotoSansJP-Regular, Noto Sans JP"><tspan x="0" y="0">で</tspan></text>
    </g>
    <g id="届いてすぐでも" transform="matrix(0.999, 0.052, -0.052, 0.999, 108.323, 3154.16)">
      <text id="届" transform="matrix(0.946, -0.326, 0.326, 0.946, 1.324, -67.351)" font-size="16" font-family="NotoSansJP-Regular, Noto Sans JP"><tspan x="0" y="0">届</tspan></text>
      <text id="い-2" data-name="い" transform="translate(15.737 -71.793) rotate(-10)" font-size="16" font-family="NotoSansJP-Regular, Noto Sans JP"><tspan x="0" y="0">い</tspan></text>
      <text id="て" transform="translate(31.053 -74.672)" font-size="16" font-family="NotoSansJP-Regular, Noto Sans JP"><tspan x="0" y="0">て</tspan></text>
      <text id="す" transform="translate(46.623 -74.815) rotate(10)" font-size="16" font-family="NotoSansJP-Regular, Noto Sans JP"><tspan x="0" y="0">す</tspan></text>
      <text id="ぐ" transform="translate(61.703 -72.092) rotate(19)" font-size="16" font-family="NotoSansJP-Regular, Noto Sans JP"><tspan x="0" y="0">ぐ</tspan></text>
      <text id="で-3" data-name="で" transform="matrix(0.875, 0.485, -0.485, 0.875, 76.397, -67.021)" font-size="16" font-family="NotoSansJP-Regular, Noto Sans JP"><tspan x="0" y="0">で</tspan></text>
      <text id="も" transform="translate(89.938 -59.426) rotate(39)" font-size="16" font-family="NotoSansJP-Regular, Noto Sans JP"><tspan x="0" y="0">も</tspan></text>
      <text id="O" transform="matrix(0.643, 0.766, -0.766, 0.643, 103.246, -49.566)" fill="#fa2626" font-size="16" font-family="NotoSansJP-Regular, Noto Sans JP"><tspan x="0" y="0">O</tspan></text>
      <text id="K" transform="matrix(0.515, 0.857, -0.857, 0.515, 125.378, -49.555)" fill="#fa2626" font-size="16" font-family="NotoSansJP-Regular, Noto Sans JP"><tspan x="0" y="19">K</tspan></text>
      <text id="_" data-name="!" transform="translate(131.781 -32.707) rotate(80)" font-size="16" font-family="NotoSansJP-Regular, Noto Sans JP"><tspan x="0" y="19">!</tspan></text>
    </g>
  </g>
</svg>
