<svg xmlns="http://www.w3.org/2000/svg" width="62" height="62" viewBox="0 0 62 62">
  <path id="vimeo" d="M55.357,2.25H6.643A6.645,6.645,0,0,0,0,8.893V57.607A6.645,6.645,0,0,0,6.643,64.25H55.357A6.645,6.645,0,0,0,62,57.607V8.893A6.645,6.645,0,0,0,55.357,2.25Zm-2.242,20.7q-.291,6.456-9.037,17.7Q35.048,52.383,28.8,52.39c-2.588,0-4.761-2.38-6.546-7.141-3.487-12.774-4.968-20.261-7.847-20.261-.332,0-1.495.692-3.474,2.09L8.857,24.393c5.107-4.484,9.978-9.466,13.023-9.743q5.169-.5,6.366,7.072c2.837,17.936,4.1,20.648,9.245,12.525,1.854-2.934,2.851-5.148,2.975-6.684.471-4.539-3.543-4.235-6.255-3.072Q37.47,13.8,46.68,14.1C51.233,14.235,53.378,17.2,53.115,22.954Z" transform="translate(0 -2.25)" fill="#98c1c1"/>
</svg>
