<svg xmlns="http://www.w3.org/2000/svg" width="35" height="35" viewBox="0 0 35 35">
  <path id="warning" d="M20.071,5.1,34.737,34.33H5.4L20.071,5.1Zm0-3.171A2.53,2.53,0,0,0,17.99,3.454L3.051,33.228c-1.145,2.035-.171,3.7,2.164,3.7H34.927c2.334,0,3.308-1.665,2.164-3.7h0L22.152,3.454A2.53,2.53,0,0,0,20.071,1.928Zm2.188,28.438a2.188,2.188,0,1,1-2.187-2.188A2.188,2.188,0,0,1,22.258,30.366Zm-2.187-4.375A2.188,2.188,0,0,1,17.883,23.8V17.241a2.188,2.188,0,0,1,4.375,0V23.8A2.188,2.188,0,0,1,20.071,25.991Z" transform="translate(-2.571 -1.928)" fill="#f5a629"/>
</svg>
