<svg xmlns="http://www.w3.org/2000/svg" width="416.371" height="371.13" viewBox="0 0 416.371 371.13">
  <g id="届いた" transform="matrix(0.966, 0.259, -0.259, 0.966, 15.38, -36.554)">
    <text id="届" transform="matrix(0.845, -0.534, 0.534, 0.845, 26.7, 101.7)" font-size="43" font-family="NotoSansJP-Regular, Noto Sans JP"><tspan x="0" y="0">届</tspan></text>
    <text id="い" transform="translate(62.967 78.682) rotate(-22.608)" font-size="43" font-family="NotoSansJP-Regular, Noto Sans JP"><tspan x="0" y="0">い</tspan></text>
    <text id="た" transform="translate(102.608 62.078) rotate(-12.892)" font-size="43" font-family="NotoSansJP-Regular, Noto Sans JP"><tspan x="0" y="0">た</tspan></text>
    <text id="そ" transform="translate(144.466 52.417) rotate(-3.253)" font-size="43" font-family="NotoSansJP-Regular, Noto Sans JP"><tspan x="0" y="0">そ</tspan></text>
    <text id="の" transform="translate(187.386 49.884) rotate(6.273)" font-size="43" font-family="NotoSansJP-Regular, Noto Sans JP"><tspan x="0" y="0">の</tspan></text>
    <text id="日" transform="translate(230.152 54.494) rotate(15.966)" font-size="43" font-family="NotoSansJP-Regular, Noto Sans JP"><tspan x="0" y="0">日</tspan></text>
    <text id="に" transform="translate(271.481 66.226) rotate(25.672)" font-size="43" font-family="NotoSansJP-Regular, Noto Sans JP"><tspan x="0" y="0">に</tspan></text>
    <text id="お" transform="matrix(0.816, 0.578, -0.578, 0.816, 310.241, 84.764)" fill="#f5a629" font-size="43" font-family="NotoSansJP-Regular, Noto Sans JP"><tspan x="0" y="0">お</tspan></text>
    <text id="う" transform="matrix(0.708, 0.706, -0.706, 0.708, 345.348, 109.535)" fill="#f5a629" font-size="43" font-family="NotoSansJP-Regular, Noto Sans JP"><tspan x="0" y="0">う</tspan></text>
    <text id="ち" transform="matrix(0.58, 0.814, -0.814, 0.58, 375.87, 139.843)" fill="#f5a629" font-size="43" font-family="NotoSansJP-Regular, Noto Sans JP"><tspan x="0" y="0">ち</tspan></text>
    <text id="飲" transform="translate(400.883 174.772) rotate(64.164)" fill="#f5a629" font-size="43" font-family="NotoSansJP-Regular, Noto Sans JP"><tspan x="0" y="0">飲</tspan></text>
    <text id="み" transform="matrix(0.278, 0.961, -0.961, 0.278, 419.699, 213.433)" fill="#f5a629" font-size="43" font-family="NotoSansJP-Regular, Noto Sans JP"><tspan x="0" y="0">み</tspan></text>
    <text id="_" data-name="！" transform="translate(431.706 254.667) rotate(83.557)" font-size="43" font-family="NotoSansJP-Regular, Noto Sans JP"><tspan x="0" y="0">！</tspan></text>
  </g>
</svg>
